<?xml version="1.0" encoding="UTF-8" standalone="no"?><svg xmlns="http://www.w3.org/2000/svg" xmlns:xlink="http://www.w3.org/1999/xlink" clip-rule="evenodd" stroke-miterlimit="10" viewBox="0 0 1024 768"><desc>SVG generated by Keynote</desc><defs></defs><g transform="matrix(1.00, 0.00, -0.00, -1.00, 0.0, 768.0)"><path d="M 0.0 768.0 L 1024.0 768.0 L 1024.0 0.0 L 0.0 0.0 Z M 0.0 768.0 " fill="#FEFFFF"></path><text xml:space="preserve" font-family="GillSans,Gill Sans" font-size="71.8" fill="#000000" transform="matrix(1.00, 0.00, -0.00, -1.00, 129.0, 480.6)">•</text><text xml:space="preserve" font-family="GillSans,Gill Sans" font-size="42.0" fill="#000000" transform="matrix(1.00, 0.00, -0.00, -1.00, 174.0, 490.7)">I</text><text xml:space="preserve" font-family="GillSans,Gill Sans" font-size="42.0" fill="#000000" transform="matrix(1.00, 0.00, -0.00, -1.00, 184.5, 490.7)">f</text><text xml:space="preserve" font-family="GillSans,Gill Sans" font-size="42.0" fill="#000000" transform="matrix(1.00, 0.00, -0.00, -1.00, 195.0, 490.7)"> </text><text xml:space="preserve" font-family="GillSans,Gill Sans" font-size="42.0" fill="#000000" transform="matrix(1.00, 0.00, -0.00, -1.00, 206.7, 490.7)">y</text><text xml:space="preserve" font-family="GillSans,Gill Sans" font-size="42.0" fill="#000000" transform="matrix(1.00, 0.00, -0.00, -1.00, 224.2, 490.7)">o</text><text xml:space="preserve" font-family="GillSans,Gill Sans" font-size="42.0" fill="#000000" transform="matrix(1.00, 0.00, -0.00, -1.00, 247.4, 490.7)">u</text><text xml:space="preserve" font-family="GillSans,Gill Sans" font-size="42.0" fill="#000000" transform="matrix(1.00, 0.00, -0.00, -1.00, 268.4, 490.7)"> </text><text xml:space="preserve" font-family="GillSans,Gill Sans" font-size="42.0" fill="#000000" transform="matrix(1.00, 0.00, -0.00, -1.00, 280.0, 490.7)">c</text><text xml:space="preserve" font-family="GillSans,Gill Sans" font-size="42.0" fill="#000000" transform="matrix(1.00, 0.00, -0.00, -1.00, 298.4, 490.7)">h</text><text xml:space="preserve" font-family="GillSans,Gill Sans" font-size="42.0" fill="#000000" transform="matrix(1.00, 0.00, -0.00, -1.00, 319.4, 490.7)">a</text><text xml:space="preserve" font-family="GillSans,Gill Sans" font-size="42.0" fill="#000000" transform="matrix(1.00, 0.00, -0.00, -1.00, 337.4, 490.7)">n</text><text xml:space="preserve" font-family="GillSans,Gill Sans" font-size="42.0" fill="#000000" transform="matrix(1.00, 0.00, -0.00, -1.00, 358.4, 490.7)">g</text><text xml:space="preserve" font-family="GillSans,Gill Sans" font-size="42.0" fill="#000000" transform="matrix(1.00, 0.00, -0.00, -1.00, 376.3, 490.7)">e</text><text xml:space="preserve" font-family="GillSans,Gill Sans" font-size="42.0" fill="#000000" transform="matrix(1.00, 0.00, -0.00, -1.00, 396.4, 490.7)"> </text><text xml:space="preserve" font-family="GillSans,Gill Sans" font-size="42.0" fill="#000000" transform="matrix(1.00, 0.00, -0.00, -1.00, 408.0, 490.7)">m</text><text xml:space="preserve" font-family="GillSans,Gill Sans" font-size="42.0" fill="#000000" transform="matrix(1.00, 0.00, -0.00, -1.00, 440.4, 490.7)">o</text><text xml:space="preserve" font-family="GillSans,Gill Sans" font-size="42.0" fill="#000000" transform="matrix(1.00, 0.00, -0.00, -1.00, 463.6, 490.7)">r</text><text xml:space="preserve" font-family="GillSans,Gill Sans" font-size="42.0" fill="#000000" transform="matrix(1.00, 0.00, -0.00, -1.00, 479.4, 490.7)">e</text><text xml:space="preserve" font-family="GillSans,Gill Sans" font-size="42.0" fill="#000000" transform="matrix(1.00, 0.00, -0.00, -1.00, 499.5, 490.7)"> </text><text xml:space="preserve" font-family="GillSans,Gill Sans" font-size="42.0" fill="#000000" transform="matrix(1.00, 0.00, -0.00, -1.00, 511.2, 490.7)">t</text><text xml:space="preserve" font-family="GillSans,Gill Sans" font-size="42.0" fill="#000000" transform="matrix(1.00, 0.00, -0.00, -1.00, 525.2, 490.7)">h</text><text xml:space="preserve" font-family="GillSans,Gill Sans" font-size="42.0" fill="#000000" transform="matrix(1.00, 0.00, -0.00, -1.00, 546.2, 490.7)">a</text><text xml:space="preserve" font-family="GillSans,Gill Sans" font-size="42.0" fill="#000000" transform="matrix(1.00, 0.00, -0.00, -1.00, 564.1, 490.7)">n</text><text xml:space="preserve" font-family="GillSans,Gill Sans" font-size="42.0" fill="#000000" transform="matrix(1.00, 0.00, -0.00, -1.00, 585.1, 490.7)"> </text><text xml:space="preserve" font-family="GillSans,Gill Sans" font-size="42.0" fill="#000000" transform="matrix(1.00, 0.00, -0.00, -1.00, 596.7, 490.7)">1</text><text xml:space="preserve" font-family="GillSans,Gill Sans" font-size="42.0" fill="#000000" transform="matrix(1.00, 0.00, -0.00, -1.00, 617.7, 490.7)">/</text><text xml:space="preserve" font-family="GillSans,Gill Sans" font-size="42.0" fill="#000000" transform="matrix(1.00, 0.00, -0.00, -1.00, 629.5, 490.7)">3</text><text xml:space="preserve" font-family="GillSans,Gill Sans" font-size="42.0" fill="#000000" transform="matrix(1.00, 0.00, -0.00, -1.00, 650.5, 490.7)"> </text><text xml:space="preserve" font-family="GillSans,Gill Sans" font-size="42.0" fill="#000000" transform="matrix(1.00, 0.00, -0.00, -1.00, 662.2, 490.7)">o</text><text xml:space="preserve" font-family="GillSans,Gill Sans" font-size="42.0" fill="#000000" transform="matrix(1.00, 0.00, -0.00, -1.00, 685.3, 490.7)">f</text><text xml:space="preserve" font-family="GillSans,Gill Sans" font-size="42.0" fill="#000000" transform="matrix(1.00, 0.00, -0.00, -1.00, 695.8, 490.7)"> </text><text xml:space="preserve" font-family="GillSans,Gill Sans" font-size="42.0" fill="#000000" transform="matrix(1.00, 0.00, -0.00, -1.00, 707.5, 490.7)">a</text><text xml:space="preserve" font-family="GillSans,Gill Sans" font-size="42.0" fill="#000000" transform="matrix(1.00, 0.00, -0.00, -1.00, 725.4, 490.7)"> </text><text xml:space="preserve" font-family="GillSans,Gill Sans" font-size="42.0" fill="#000000" transform="matrix(1.00, 0.00, -0.00, -1.00, 737.1, 490.7)">f</text><text xml:space="preserve" font-family="GillSans,Gill Sans" font-size="42.0" fill="#000000" transform="matrix(1.00, 0.00, -0.00, -1.00, 747.6, 490.7)">u</text><text xml:space="preserve" font-family="GillSans,Gill Sans" font-size="42.0" fill="#000000" transform="matrix(1.00, 0.00, -0.00, -1.00, 768.6, 490.7)">n</text><text xml:space="preserve" font-family="GillSans,Gill Sans" font-size="42.0" fill="#000000" transform="matrix(1.00, 0.00, -0.00, -1.00, 789.6, 490.7)">c</text><text xml:space="preserve" font-family="GillSans,Gill Sans" font-size="42.0" fill="#000000" transform="matrix(1.00, 0.00, -0.00, -1.00, 808.0, 490.7)">t</text><text xml:space="preserve" font-family="GillSans,Gill Sans" font-size="42.0" fill="#000000" transform="matrix(1.00, 0.00, -0.00, -1.00, 822.0, 490.7)">i</text><text xml:space="preserve" font-family="GillSans,Gill Sans" font-size="42.0" fill="#000000" transform="matrix(1.00, 0.00, -0.00, -1.00, 831.2, 490.7)">o</text><text xml:space="preserve" font-family="GillSans,Gill Sans" font-size="42.0" fill="#000000" transform="matrix(1.00, 0.00, -0.00, -1.00, 854.3, 490.7)">n</text><text xml:space="preserve" font-family="GillSans,Gill Sans" font-size="42.0" fill="#000000" transform="matrix(1.00, 0.00, -0.00, -1.00, 875.3, 490.7)">,</text><text xml:space="preserve" font-family="GillSans,Gill Sans" font-size="42.0" fill="#000000" transform="matrix(1.00, 0.00, -0.00, -1.00, 880.3, 490.7)"> </text><text xml:space="preserve" font-family="GillSans,Gill Sans" font-size="42.0" fill="#000000" transform="matrix(1.00, 0.00, -0.00, -1.00, 174.0, 441.7)">i</text><text xml:space="preserve" font-family="GillSans,Gill Sans" font-size="42.0" fill="#000000" transform="matrix(1.00, 0.00, -0.00, -1.00, 183.2, 441.7)">t</text><text xml:space="preserve" font-family="GillSans,Gill Sans" font-size="42.0" fill="#000000" transform="matrix(1.00, 0.00, -0.00, -1.00, 197.2, 441.7)">’</text><text xml:space="preserve" font-family="GillSans,Gill Sans" font-size="42.0" fill="#000000" transform="matrix(1.00, 0.00, -0.00, -1.00, 203.1, 441.7)">s</text><text xml:space="preserve" font-family="GillSans,Gill Sans" font-size="42.0" fill="#000000" transform="matrix(1.00, 0.00, -0.00, -1.00, 219.2, 441.7)"> </text><text xml:space="preserve" font-family="GillSans,Gill Sans" font-size="42.0" fill="#000000" transform="matrix(1.00, 0.00, -0.00, -1.00, 230.9, 441.7)">t</text><text xml:space="preserve" font-family="GillSans,Gill Sans" font-size="42.0" fill="#000000" transform="matrix(1.00, 0.00, -0.00, -1.00, 244.9, 441.7)">i</text><text xml:space="preserve" font-family="GillSans,Gill Sans" font-size="42.0" fill="#000000" transform="matrix(1.00, 0.00, -0.00, -1.00, 254.1, 441.7)">m</text><text xml:space="preserve" font-family="GillSans,Gill Sans" font-size="42.0" fill="#000000" transform="matrix(1.00, 0.00, -0.00, -1.00, 286.5, 441.7)">e</text><text xml:space="preserve" font-family="GillSans,Gill Sans" font-size="42.0" fill="#000000" transform="matrix(1.00, 0.00, -0.00, -1.00, 306.6, 441.7)"> </text><text xml:space="preserve" font-family="GillSans,Gill Sans" font-size="42.0" fill="#000000" transform="matrix(1.00, 0.00, -0.00, -1.00, 318.2, 441.7)">t</text><text xml:space="preserve" font-family="GillSans,Gill Sans" font-size="42.0" fill="#000000" transform="matrix(1.00, 0.00, -0.00, -1.00, 332.2, 441.7)">o</text><text xml:space="preserve" font-family="GillSans,Gill Sans" font-size="42.0" fill="#000000" transform="matrix(1.00, 0.00, -0.00, -1.00, 355.4, 441.7)"> </text><text xml:space="preserve" font-family="GillSans,Gill Sans" font-size="42.0" fill="#000000" transform="matrix(1.00, 0.00, -0.00, -1.00, 367.0, 441.7)">r</text><text xml:space="preserve" font-family="GillSans,Gill Sans" font-size="42.0" fill="#000000" transform="matrix(1.00, 0.00, -0.00, -1.00, 382.8, 441.7)">e</text><text xml:space="preserve" font-family="GillSans,Gill Sans" font-size="42.0" fill="#000000" transform="matrix(1.00, 0.00, -0.00, -1.00, 403.0, 441.7)">f</text><text xml:space="preserve" font-family="GillSans,Gill Sans" font-size="42.0" fill="#000000" transform="matrix(1.00, 0.00, -0.00, -1.00, 413.5, 441.7)">a</text><text xml:space="preserve" font-family="GillSans,Gill Sans" font-size="42.0" fill="#000000" transform="matrix(1.00, 0.00, -0.00, -1.00, 431.4, 441.7)">c</text><text xml:space="preserve" font-family="GillSans,Gill Sans" font-size="42.0" fill="#000000" transform="matrix(1.00, 0.00, -0.00, -1.00, 449.8, 441.7)">t</text><text xml:space="preserve" font-family="GillSans,Gill Sans" font-size="42.0" fill="#000000" transform="matrix(1.00, 0.00, -0.00, -1.00, 463.8, 441.7)">o</text><text xml:space="preserve" font-family="GillSans,Gill Sans" font-size="42.0" fill="#000000" transform="matrix(1.00, 0.00, -0.00, -1.00, 486.9, 441.7)">r</text><text xml:space="preserve" font-family="GillSans,Gill Sans" font-size="42.0" fill="#000000" transform="matrix(1.00, 0.00, -0.00, -1.00, 499.3, 441.7)">.</text><text xml:space="preserve" font-family="GillSans,Gill Sans" font-size="42.0" fill="#000000" transform="matrix(1.00, 0.00, -0.00, -1.00, 504.4, 441.7)"> </text><text xml:space="preserve" font-family="GillSans,Gill Sans" font-size="71.8" fill="#000000" transform="matrix(1.00, 0.00, -0.00, -1.00, 129.0, 334.6)">•</text><text xml:space="preserve" font-family="GillSans,Gill Sans" font-size="42.0" fill="#000000" transform="matrix(1.00, 0.00, -0.00, -1.00, 174.0, 344.7)">I</text><text xml:space="preserve" font-family="GillSans,Gill Sans" font-size="42.0" fill="#000000" transform="matrix(1.00, 0.00, -0.00, -1.00, 184.5, 344.7)">f</text><text xml:space="preserve" font-family="GillSans,Gill Sans" font-size="42.0" fill="#000000" transform="matrix(1.00, 0.00, -0.00, -1.00, 195.0, 344.7)"> </text><text xml:space="preserve" font-family="GillSans,Gill Sans" font-size="42.0" fill="#000000" transform="matrix(1.00, 0.00, -0.00, -1.00, 206.7, 344.7)">y</text><text xml:space="preserve" font-family="GillSans,Gill Sans" font-size="42.0" fill="#000000" transform="matrix(1.00, 0.00, -0.00, -1.00, 224.2, 344.7)">o</text><text xml:space="preserve" font-family="GillSans,Gill Sans" font-size="42.0" fill="#000000" transform="matrix(1.00, 0.00, -0.00, -1.00, 247.4, 344.7)">u</text><text xml:space="preserve" font-family="GillSans,Gill Sans" font-size="42.0" fill="#000000" transform="matrix(1.00, 0.00, -0.00, -1.00, 268.4, 344.7)"> </text><text xml:space="preserve" font-family="GillSans,Gill Sans" font-size="42.0" fill="#000000" transform="matrix(1.00, 0.00, -0.00, -1.00, 280.0, 344.7)">h</text><text xml:space="preserve" font-family="GillSans,Gill Sans" font-size="42.0" fill="#000000" transform="matrix(1.00, 0.00, -0.00, -1.00, 301.0, 344.7)">a</text><text xml:space="preserve" font-family="GillSans,Gill Sans" font-size="42.0" fill="#000000" transform="matrix(1.00, 0.00, -0.00, -1.00, 317.5, 344.7)">v</text><text xml:space="preserve" font-family="GillSans,Gill Sans" font-size="42.0" fill="#000000" transform="matrix(1.00, 0.00, -0.00, -1.00, 335.0, 344.7)">e</text><text xml:space="preserve" font-family="GillSans,Gill Sans" font-size="42.0" fill="#000000" transform="matrix(1.00, 0.00, -0.00, -1.00, 355.2, 344.7)">n</text><text xml:space="preserve" font-family="GillSans,Gill Sans" font-size="42.0" fill="#000000" transform="matrix(1.00, 0.00, -0.00, -1.00, 376.2, 344.7)">’</text><text xml:space="preserve" font-family="GillSans,Gill Sans" font-size="42.0" fill="#000000" transform="matrix(1.00, 0.00, -0.00, -1.00, 383.7, 344.7)">t</text><text xml:space="preserve" font-family="GillSans,Gill Sans" font-size="42.0" fill="#000000" transform="matrix(1.00, 0.00, -0.00, -1.00, 397.7, 344.7)"> </text><text xml:space="preserve" font-family="GillSans,Gill Sans" font-size="42.0" fill="#000000" transform="matrix(1.00, 0.00, -0.00, -1.00, 409.3, 344.7)">l</text><text xml:space="preserve" font-family="GillSans,Gill Sans" font-size="42.0" fill="#000000" transform="matrix(1.00, 0.00, -0.00, -1.00, 418.6, 344.7)">o</text><text xml:space="preserve" font-family="GillSans,Gill Sans" font-size="42.0" fill="#000000" transform="matrix(1.00, 0.00, -0.00, -1.00, 441.7, 344.7)">o</text><text xml:space="preserve" font-family="GillSans,Gill Sans" font-size="42.0" fill="#000000" transform="matrix(1.00, 0.00, -0.00, -1.00, 464.9, 344.7)">k</text><text xml:space="preserve" font-family="GillSans,Gill Sans" font-size="42.0" fill="#000000" transform="matrix(1.00, 0.00, -0.00, -1.00, 483.7, 344.7)">e</text><text xml:space="preserve" font-family="GillSans,Gill Sans" font-size="42.0" fill="#000000" transform="matrix(1.00, 0.00, -0.00, -1.00, 503.9, 344.7)">d</text><text xml:space="preserve" font-family="GillSans,Gill Sans" font-size="42.0" fill="#000000" transform="matrix(1.00, 0.00, -0.00, -1.00, 525.3, 344.7)"> </text><text xml:space="preserve" font-family="GillSans,Gill Sans" font-size="42.0" fill="#000000" transform="matrix(1.00, 0.00, -0.00, -1.00, 536.9, 344.7)">a</text><text xml:space="preserve" font-family="GillSans,Gill Sans" font-size="42.0" fill="#000000" transform="matrix(1.00, 0.00, -0.00, -1.00, 554.8, 344.7)">t</text><text xml:space="preserve" font-family="GillSans,Gill Sans" font-size="42.0" fill="#000000" transform="matrix(1.00, 0.00, -0.00, -1.00, 568.8, 344.7)"> </text><text xml:space="preserve" font-family="GillSans,Gill Sans" font-size="42.0" fill="#000000" transform="matrix(1.00, 0.00, -0.00, -1.00, 580.5, 344.7)">a</text><text xml:space="preserve" font-family="GillSans,Gill Sans" font-size="42.0" fill="#000000" transform="matrix(1.00, 0.00, -0.00, -1.00, 598.4, 344.7)"> </text><text xml:space="preserve" font-family="GillSans,Gill Sans" font-size="42.0" fill="#000000" transform="matrix(1.00, 0.00, -0.00, -1.00, 610.1, 344.7)">c</text><text xml:space="preserve" font-family="GillSans,Gill Sans" font-size="42.0" fill="#000000" transform="matrix(1.00, 0.00, -0.00, -1.00, 628.5, 344.7)">l</text><text xml:space="preserve" font-family="GillSans,Gill Sans" font-size="42.0" fill="#000000" transform="matrix(1.00, 0.00, -0.00, -1.00, 637.7, 344.7)">a</text><text xml:space="preserve" font-family="GillSans,Gill Sans" font-size="42.0" fill="#000000" transform="matrix(1.00, 0.00, -0.00, -1.00, 655.6, 344.7)">s</text><text xml:space="preserve" font-family="GillSans,Gill Sans" font-size="42.0" fill="#000000" transform="matrix(1.00, 0.00, -0.00, -1.00, 671.7, 344.7)">s</text><text xml:space="preserve" font-family="GillSans,Gill Sans" font-size="42.0" fill="#000000" transform="matrix(1.00, 0.00, -0.00, -1.00, 687.9, 344.7)"> </text><text xml:space="preserve" font-family="GillSans,Gill Sans" font-size="42.0" fill="#000000" transform="matrix(1.00, 0.00, -0.00, -1.00, 699.6, 344.7)">o</text><text xml:space="preserve" font-family="GillSans,Gill Sans" font-size="42.0" fill="#000000" transform="matrix(1.00, 0.00, -0.00, -1.00, 722.7, 344.7)">r</text><text xml:space="preserve" font-family="GillSans,Gill Sans" font-size="42.0" fill="#000000" transform="matrix(1.00, 0.00, -0.00, -1.00, 739.4, 344.7)"> </text><text xml:space="preserve" font-family="GillSans,Gill Sans" font-size="42.0" fill="#000000" transform="matrix(1.00, 0.00, -0.00, -1.00, 751.0, 344.7)">f</text><text xml:space="preserve" font-family="GillSans,Gill Sans" font-size="42.0" fill="#000000" transform="matrix(1.00, 0.00, -0.00, -1.00, 761.5, 344.7)">u</text><text xml:space="preserve" font-family="GillSans,Gill Sans" font-size="42.0" fill="#000000" transform="matrix(1.00, 0.00, -0.00, -1.00, 782.5, 344.7)">n</text><text xml:space="preserve" font-family="GillSans,Gill Sans" font-size="42.0" fill="#000000" transform="matrix(1.00, 0.00, -0.00, -1.00, 803.5, 344.7)">c</text><text xml:space="preserve" font-family="GillSans,Gill Sans" font-size="42.0" fill="#000000" transform="matrix(1.00, 0.00, -0.00, -1.00, 821.9, 344.7)">t</text><text xml:space="preserve" font-family="GillSans,Gill Sans" font-size="42.0" fill="#000000" transform="matrix(1.00, 0.00, -0.00, -1.00, 835.9, 344.7)">i</text><text xml:space="preserve" font-family="GillSans,Gill Sans" font-size="42.0" fill="#000000" transform="matrix(1.00, 0.00, -0.00, -1.00, 845.1, 344.7)">o</text><text xml:space="preserve" font-family="GillSans,Gill Sans" font-size="42.0" fill="#000000" transform="matrix(1.00, 0.00, -0.00, -1.00, 868.3, 344.7)">n</text><text xml:space="preserve" font-family="GillSans,Gill Sans" font-size="42.0" fill="#000000" transform="matrix(1.00, 0.00, -0.00, -1.00, 889.3, 344.7)"> </text><text xml:space="preserve" font-family="GillSans,Gill Sans" font-size="42.0" fill="#000000" transform="matrix(1.00, 0.00, -0.00, -1.00, 174.0, 295.7)">i</text><text xml:space="preserve" font-family="GillSans,Gill Sans" font-size="42.0" fill="#000000" transform="matrix(1.00, 0.00, -0.00, -1.00, 183.2, 295.7)">n</text><text xml:space="preserve" font-family="GillSans,Gill Sans" font-size="42.0" fill="#000000" transform="matrix(1.00, 0.00, -0.00, -1.00, 204.2, 295.7)"> </text><text xml:space="preserve" font-family="GillSans,Gill Sans" font-size="42.0" fill="#000000" transform="matrix(1.00, 0.00, -0.00, -1.00, 215.9, 295.7)">3</text><text xml:space="preserve" font-family="GillSans,Gill Sans" font-size="42.0" fill="#000000" transform="matrix(1.00, 0.00, -0.00, -1.00, 236.9, 295.7)"> </text><text xml:space="preserve" font-family="GillSans,Gill Sans" font-size="42.0" fill="#000000" transform="matrix(1.00, 0.00, -0.00, -1.00, 248.5, 295.7)">m</text><text xml:space="preserve" font-family="GillSans,Gill Sans" font-size="42.0" fill="#000000" transform="matrix(1.00, 0.00, -0.00, -1.00, 280.9, 295.7)">o</text><text xml:space="preserve" font-family="GillSans,Gill Sans" font-size="42.0" fill="#000000" transform="matrix(1.00, 0.00, -0.00, -1.00, 304.1, 295.7)">n</text><text xml:space="preserve" font-family="GillSans,Gill Sans" font-size="42.0" fill="#000000" transform="matrix(1.00, 0.00, -0.00, -1.00, 325.1, 295.7)">t</text><text xml:space="preserve" font-family="GillSans,Gill Sans" font-size="42.0" fill="#000000" transform="matrix(1.00, 0.00, -0.00, -1.00, 339.1, 295.7)">h</text><text xml:space="preserve" font-family="GillSans,Gill Sans" font-size="42.0" fill="#000000" transform="matrix(1.00, 0.00, -0.00, -1.00, 360.1, 295.7)">s</text><text xml:space="preserve" font-family="GillSans,Gill Sans" font-size="42.0" fill="#000000" transform="matrix(1.00, 0.00, -0.00, -1.00, 376.2, 295.7)">,</text><text xml:space="preserve" font-family="GillSans,Gill Sans" font-size="42.0" fill="#000000" transform="matrix(1.00, 0.00, -0.00, -1.00, 381.2, 295.7)"> </text><text xml:space="preserve" font-family="GillSans,Gill Sans" font-size="42.0" fill="#000000" transform="matrix(1.00, 0.00, -0.00, -1.00, 392.9, 295.7)">i</text><text xml:space="preserve" font-family="GillSans,Gill Sans" font-size="42.0" fill="#000000" transform="matrix(1.00, 0.00, -0.00, -1.00, 402.1, 295.7)">t</text><text xml:space="preserve" font-family="GillSans,Gill Sans" font-size="42.0" fill="#000000" transform="matrix(1.00, 0.00, -0.00, -1.00, 416.1, 295.7)">’</text><text xml:space="preserve" font-family="GillSans,Gill Sans" font-size="42.0" fill="#000000" transform="matrix(1.00, 0.00, -0.00, -1.00, 422.0, 295.7)">s</text><text xml:space="preserve" font-family="GillSans,Gill Sans" font-size="42.0" fill="#000000" transform="matrix(1.00, 0.00, -0.00, -1.00, 438.1, 295.7)"> </text><text xml:space="preserve" font-family="GillSans,Gill Sans" font-size="42.0" fill="#000000" transform="matrix(1.00, 0.00, -0.00, -1.00, 449.8, 295.7)">t</text><text xml:space="preserve" font-family="GillSans,Gill Sans" font-size="42.0" fill="#000000" transform="matrix(1.00, 0.00, -0.00, -1.00, 463.8, 295.7)">i</text><text xml:space="preserve" font-family="GillSans,Gill Sans" font-size="42.0" fill="#000000" transform="matrix(1.00, 0.00, -0.00, -1.00, 473.0, 295.7)">m</text><text xml:space="preserve" font-family="GillSans,Gill Sans" font-size="42.0" fill="#000000" transform="matrix(1.00, 0.00, -0.00, -1.00, 505.4, 295.7)">e</text><text xml:space="preserve" font-family="GillSans,Gill Sans" font-size="42.0" fill="#000000" transform="matrix(1.00, 0.00, -0.00, -1.00, 525.5, 295.7)"> </text><text xml:space="preserve" font-family="GillSans,Gill Sans" font-size="42.0" fill="#000000" transform="matrix(1.00, 0.00, -0.00, -1.00, 537.1, 295.7)">t</text><text xml:space="preserve" font-family="GillSans,Gill Sans" font-size="42.0" fill="#000000" transform="matrix(1.00, 0.00, -0.00, -1.00, 551.1, 295.7)">o</text><text xml:space="preserve" font-family="GillSans,Gill Sans" font-size="42.0" fill="#000000" transform="matrix(1.00, 0.00, -0.00, -1.00, 574.3, 295.7)"> </text><text xml:space="preserve" font-family="GillSans,Gill Sans" font-size="42.0" fill="#000000" transform="matrix(1.00, 0.00, -0.00, -1.00, 585.9, 295.7)">c</text><text xml:space="preserve" font-family="GillSans,Gill Sans" font-size="42.0" fill="#000000" transform="matrix(1.00, 0.00, -0.00, -1.00, 604.3, 295.7)">o</text><text xml:space="preserve" font-family="GillSans,Gill Sans" font-size="42.0" fill="#000000" transform="matrix(1.00, 0.00, -0.00, -1.00, 627.5, 295.7)">n</text><text xml:space="preserve" font-family="GillSans,Gill Sans" font-size="42.0" fill="#000000" transform="matrix(1.00, 0.00, -0.00, -1.00, 648.5, 295.7)">s</text><text xml:space="preserve" font-family="GillSans,Gill Sans" font-size="42.0" fill="#000000" transform="matrix(1.00, 0.00, -0.00, -1.00, 664.7, 295.7)">i</text><text xml:space="preserve" font-family="GillSans,Gill Sans" font-size="42.0" fill="#000000" transform="matrix(1.00, 0.00, -0.00, -1.00, 673.9, 295.7)">d</text><text xml:space="preserve" font-family="GillSans,Gill Sans" font-size="42.0" fill="#000000" transform="matrix(1.00, 0.00, -0.00, -1.00, 695.3, 295.7)">e</text><text xml:space="preserve" font-family="GillSans,Gill Sans" font-size="42.0" fill="#000000" transform="matrix(1.00, 0.00, -0.00, -1.00, 715.4, 295.7)">r</text><text xml:space="preserve" font-family="GillSans,Gill Sans" font-size="42.0" fill="#000000" transform="matrix(1.00, 0.00, -0.00, -1.00, 732.0, 295.7)"> </text><text xml:space="preserve" font-family="GillSans,Gill Sans" font-size="42.0" fill="#000000" transform="matrix(1.00, 0.00, -0.00, -1.00, 174.0, 246.7)">r</text><text xml:space="preserve" font-family="GillSans,Gill Sans" font-size="42.0" fill="#000000" transform="matrix(1.00, 0.00, -0.00, -1.00, 189.8, 246.7)">e</text><text xml:space="preserve" font-family="GillSans,Gill Sans" font-size="42.0" fill="#000000" transform="matrix(1.00, 0.00, -0.00, -1.00, 209.9, 246.7)">f</text><text xml:space="preserve" font-family="GillSans,Gill Sans" font-size="42.0" fill="#000000" transform="matrix(1.00, 0.00, -0.00, -1.00, 220.4, 246.7)">a</text><text xml:space="preserve" font-family="GillSans,Gill Sans" font-size="42.0" fill="#000000" transform="matrix(1.00, 0.00, -0.00, -1.00, 238.3, 246.7)">c</text><text xml:space="preserve" font-family="GillSans,Gill Sans" font-size="42.0" fill="#000000" transform="matrix(1.00, 0.00, -0.00, -1.00, 256.7, 246.7)">t</text><text xml:space="preserve" font-family="GillSans,Gill Sans" font-size="42.0" fill="#000000" transform="matrix(1.00, 0.00, -0.00, -1.00, 270.7, 246.7)">o</text><text xml:space="preserve" font-family="GillSans,Gill Sans" font-size="42.0" fill="#000000" transform="matrix(1.00, 0.00, -0.00, -1.00, 293.9, 246.7)">r</text><text xml:space="preserve" font-family="GillSans,Gill Sans" font-size="42.0" fill="#000000" transform="matrix(1.00, 0.00, -0.00, -1.00, 310.5, 246.7)">i</text><text xml:space="preserve" font-family="GillSans,Gill Sans" font-size="42.0" fill="#000000" transform="matrix(1.00, 0.00, -0.00, -1.00, 319.7, 246.7)">n</text><text xml:space="preserve" font-family="GillSans,Gill Sans" font-size="42.0" fill="#000000" transform="matrix(1.00, 0.00, -0.00, -1.00, 340.7, 246.7)">g</text><text xml:space="preserve" font-family="GillSans,Gill Sans" font-size="42.0" fill="#000000" transform="matrix(1.00, 0.00, -0.00, -1.00, 358.6, 246.7)">.</text></g></svg>