<?xml version="1.0" encoding="UTF-8" standalone="no"?><svg xmlns="http://www.w3.org/2000/svg" xmlns:xlink="http://www.w3.org/1999/xlink" clip-rule="evenodd" stroke-miterlimit="10" viewBox="0 0 1024 768"><desc>SVG generated by Keynote</desc><defs></defs><g transform="matrix(1.00, 0.00, -0.00, -1.00, 0.0, 768.0)"><path d="M 0.0 768.0 L 1024.0 768.0 L 1024.0 0.0 L 0.0 0.0 Z M 0.0 768.0 " fill="#FEFFFF"></path><text xml:space="preserve" font-family="GillSans,Gill Sans" font-size="84.0" fill="#000000" transform="matrix(1.00, 0.00, -0.00, -1.00, 372.5, 623.4)">S</text><text xml:space="preserve" font-family="GillSans,Gill Sans" font-size="84.0" fill="#000000" transform="matrix(1.00, 0.00, -0.00, -1.00, 411.0, 623.4)">e</text><text xml:space="preserve" font-family="GillSans,Gill Sans" font-size="84.0" fill="#000000" transform="matrix(1.00, 0.00, -0.00, -1.00, 451.2, 623.4)">r</text><text xml:space="preserve" font-family="GillSans,Gill Sans" font-size="84.0" fill="#000000" transform="matrix(1.00, 0.00, -0.00, -1.00, 487.0, 623.4)">v</text><text xml:space="preserve" font-family="GillSans,Gill Sans" font-size="84.0" fill="#000000" transform="matrix(1.00, 0.00, -0.00, -1.00, 523.8, 623.4)">i</text><text xml:space="preserve" font-family="GillSans,Gill Sans" font-size="84.0" fill="#000000" transform="matrix(1.00, 0.00, -0.00, -1.00, 542.2, 623.4)">c</text><text xml:space="preserve" font-family="GillSans,Gill Sans" font-size="84.0" fill="#000000" transform="matrix(1.00, 0.00, -0.00, -1.00, 579.0, 623.4)">e</text><text xml:space="preserve" font-family="GillSans,Gill Sans" font-size="84.0" fill="#000000" transform="matrix(1.00, 0.00, -0.00, -1.00, 619.2, 623.4)">s</text><text xml:space="preserve" font-family="GillSans,Gill Sans" font-size="62.5" fill="#000000" transform="matrix(1.00, 0.00, -0.00, -1.00, 129.0, 502.9)">•</text><text xml:space="preserve" font-family="GillSans,Gill Sans" font-size="36.5" fill="#000000" transform="matrix(1.00, 0.00, -0.00, -1.00, 168.2, 511.4)">S</text><text xml:space="preserve" font-family="GillSans,Gill Sans" font-size="36.5" fill="#000000" transform="matrix(1.00, 0.00, -0.00, -1.00, 184.9, 511.4)">e</text><text xml:space="preserve" font-family="GillSans,Gill Sans" font-size="36.5" fill="#000000" transform="matrix(1.00, 0.00, -0.00, -1.00, 202.4, 511.4)">r</text><text xml:space="preserve" font-family="GillSans,Gill Sans" font-size="36.5" fill="#000000" transform="matrix(1.00, 0.00, -0.00, -1.00, 217.9, 511.4)">v</text><text xml:space="preserve" font-family="GillSans,Gill Sans" font-size="36.5" fill="#000000" transform="matrix(1.00, 0.00, -0.00, -1.00, 234.0, 511.4)">i</text><text xml:space="preserve" font-family="GillSans,Gill Sans" font-size="36.5" fill="#000000" transform="matrix(1.00, 0.00, -0.00, -1.00, 242.0, 511.4)">c</text><text xml:space="preserve" font-family="GillSans,Gill Sans" font-size="36.5" fill="#000000" transform="matrix(1.00, 0.00, -0.00, -1.00, 258.0, 511.4)">e</text><text xml:space="preserve" font-family="GillSans,Gill Sans" font-size="36.5" fill="#000000" transform="matrix(1.00, 0.00, -0.00, -1.00, 275.5, 511.4)">s</text><text xml:space="preserve" font-family="GillSans,Gill Sans" font-size="36.5" fill="#000000" transform="matrix(1.00, 0.00, -0.00, -1.00, 289.5, 511.4)"> </text><text xml:space="preserve" font-family="GillSans,Gill Sans" font-size="36.5" fill="#000000" transform="matrix(1.00, 0.00, -0.00, -1.00, 299.7, 511.4)">p</text><text xml:space="preserve" font-family="GillSans,Gill Sans" font-size="36.5" fill="#000000" transform="matrix(1.00, 0.00, -0.00, -1.00, 317.9, 511.4)">r</text><text xml:space="preserve" font-family="GillSans,Gill Sans" font-size="36.5" fill="#000000" transform="matrix(1.00, 0.00, -0.00, -1.00, 331.5, 511.4)">o</text><text xml:space="preserve" font-family="GillSans,Gill Sans" font-size="36.5" fill="#000000" transform="matrix(1.00, 0.00, -0.00, -1.00, 351.3, 511.4)">v</text><text xml:space="preserve" font-family="GillSans,Gill Sans" font-size="36.5" fill="#000000" transform="matrix(1.00, 0.00, -0.00, -1.00, 367.3, 511.4)">i</text><text xml:space="preserve" font-family="GillSans,Gill Sans" font-size="36.5" fill="#000000" transform="matrix(1.00, 0.00, -0.00, -1.00, 375.3, 511.4)">d</text><text xml:space="preserve" font-family="GillSans,Gill Sans" font-size="36.5" fill="#000000" transform="matrix(1.00, 0.00, -0.00, -1.00, 393.9, 511.4)">e</text><text xml:space="preserve" font-family="GillSans,Gill Sans" font-size="36.5" fill="#000000" transform="matrix(1.00, 0.00, -0.00, -1.00, 411.4, 511.4)"> </text><text xml:space="preserve" font-family="GillSans,Gill Sans" font-size="36.5" fill="#000000" transform="matrix(1.00, 0.00, -0.00, -1.00, 421.6, 511.4)">H</text><text xml:space="preserve" font-family="GillSans,Gill Sans" font-size="36.5" fill="#000000" transform="matrix(1.00, 0.00, -0.00, -1.00, 448.2, 511.4)">T</text><text xml:space="preserve" font-family="GillSans,Gill Sans" font-size="36.5" fill="#000000" transform="matrix(1.00, 0.00, -0.00, -1.00, 470.3, 511.4)">T</text><text xml:space="preserve" font-family="GillSans,Gill Sans" font-size="36.5" fill="#000000" transform="matrix(1.00, 0.00, -0.00, -1.00, 492.4, 511.4)">P</text><text xml:space="preserve" font-family="GillSans,Gill Sans" font-size="36.5" fill="#000000" transform="matrix(1.00, 0.00, -0.00, -1.00, 511.0, 511.4)"> </text><text xml:space="preserve" font-family="GillSans,Gill Sans" font-size="36.5" fill="#000000" transform="matrix(1.00, 0.00, -0.00, -1.00, 521.1, 511.4)">e</text><text xml:space="preserve" font-family="GillSans,Gill Sans" font-size="36.5" fill="#000000" transform="matrix(1.00, 0.00, -0.00, -1.00, 538.6, 511.4)">n</text><text xml:space="preserve" font-family="GillSans,Gill Sans" font-size="36.5" fill="#000000" transform="matrix(1.00, 0.00, -0.00, -1.00, 556.9, 511.4)">t</text><text xml:space="preserve" font-family="GillSans,Gill Sans" font-size="36.5" fill="#000000" transform="matrix(1.00, 0.00, -0.00, -1.00, 569.1, 511.4)">r</text><text xml:space="preserve" font-family="GillSans,Gill Sans" font-size="36.5" fill="#000000" transform="matrix(1.00, 0.00, -0.00, -1.00, 584.6, 511.4)">y</text><text xml:space="preserve" font-family="GillSans,Gill Sans" font-size="36.5" fill="#000000" transform="matrix(1.00, 0.00, -0.00, -1.00, 600.6, 511.4)"> </text><text xml:space="preserve" font-family="GillSans,Gill Sans" font-size="36.5" fill="#000000" transform="matrix(1.00, 0.00, -0.00, -1.00, 610.8, 511.4)">p</text><text xml:space="preserve" font-family="GillSans,Gill Sans" font-size="36.5" fill="#000000" transform="matrix(1.00, 0.00, -0.00, -1.00, 629.0, 511.4)">o</text><text xml:space="preserve" font-family="GillSans,Gill Sans" font-size="36.5" fill="#000000" transform="matrix(1.00, 0.00, -0.00, -1.00, 649.2, 511.4)">i</text><text xml:space="preserve" font-family="GillSans,Gill Sans" font-size="36.5" fill="#000000" transform="matrix(1.00, 0.00, -0.00, -1.00, 657.2, 511.4)">n</text><text xml:space="preserve" font-family="GillSans,Gill Sans" font-size="36.5" fill="#000000" transform="matrix(1.00, 0.00, -0.00, -1.00, 675.5, 511.4)">t</text><text xml:space="preserve" font-family="GillSans,Gill Sans" font-size="36.5" fill="#000000" transform="matrix(1.00, 0.00, -0.00, -1.00, 687.7, 511.4)">s</text><text xml:space="preserve" font-family="GillSans,Gill Sans" font-size="36.5" fill="#000000" transform="matrix(1.00, 0.00, -0.00, -1.00, 701.7, 511.4)"> </text><text xml:space="preserve" font-family="GillSans,Gill Sans" font-size="36.5" fill="#000000" transform="matrix(1.00, 0.00, -0.00, -1.00, 711.9, 511.4)">t</text><text xml:space="preserve" font-family="GillSans,Gill Sans" font-size="36.5" fill="#000000" transform="matrix(1.00, 0.00, -0.00, -1.00, 724.0, 511.4)">o</text><text xml:space="preserve" font-family="GillSans,Gill Sans" font-size="36.5" fill="#000000" transform="matrix(1.00, 0.00, -0.00, -1.00, 744.2, 511.4)"> </text><text xml:space="preserve" font-family="GillSans,Gill Sans" font-size="36.5" fill="#000000" transform="matrix(1.00, 0.00, -0.00, -1.00, 754.3, 511.4)">t</text><text xml:space="preserve" font-family="GillSans,Gill Sans" font-size="36.5" fill="#000000" transform="matrix(1.00, 0.00, -0.00, -1.00, 766.5, 511.4)">h</text><text xml:space="preserve" font-family="GillSans,Gill Sans" font-size="36.5" fill="#000000" transform="matrix(1.00, 0.00, -0.00, -1.00, 784.8, 511.4)">e</text><text xml:space="preserve" font-family="GillSans,Gill Sans" font-size="36.5" fill="#000000" transform="matrix(1.00, 0.00, -0.00, -1.00, 802.3, 511.4)"> </text><text xml:space="preserve" font-family="GillSans,Gill Sans" font-size="36.5" fill="#000000" transform="matrix(1.00, 0.00, -0.00, -1.00, 812.4, 511.4)">s</text><text xml:space="preserve" font-family="GillSans,Gill Sans" font-size="36.5" fill="#000000" transform="matrix(1.00, 0.00, -0.00, -1.00, 826.5, 511.4)">y</text><text xml:space="preserve" font-family="GillSans,Gill Sans" font-size="36.5" fill="#000000" transform="matrix(1.00, 0.00, -0.00, -1.00, 842.5, 511.4)">s</text><text xml:space="preserve" font-family="GillSans,Gill Sans" font-size="36.5" fill="#000000" transform="matrix(1.00, 0.00, -0.00, -1.00, 856.5, 511.4)">t</text><text xml:space="preserve" font-family="GillSans,Gill Sans" font-size="36.5" fill="#000000" transform="matrix(1.00, 0.00, -0.00, -1.00, 868.7, 511.4)">e</text><text xml:space="preserve" font-family="GillSans,Gill Sans" font-size="36.5" fill="#000000" transform="matrix(1.00, 0.00, -0.00, -1.00, 886.2, 511.4)">m</text><text xml:space="preserve" font-family="GillSans,Gill Sans" font-size="36.5" fill="#000000" transform="matrix(1.00, 0.00, -0.00, -1.00, 914.5, 511.4)">.</text><text xml:space="preserve" font-family="GillSans,Gill Sans" font-size="36.5" fill="#000000" transform="matrix(1.00, 0.00, -0.00, -1.00, 918.8, 511.4)"> </text><text xml:space="preserve" font-family="GillSans,Gill Sans" font-size="36.5" fill="#000000" transform="matrix(1.00, 0.00, -0.00, -1.00, 168.2, 469.4)">T</text><text xml:space="preserve" font-family="GillSans,Gill Sans" font-size="36.5" fill="#000000" transform="matrix(1.00, 0.00, -0.00, -1.00, 190.2, 469.4)">h</text><text xml:space="preserve" font-family="GillSans,Gill Sans" font-size="36.5" fill="#000000" transform="matrix(1.00, 0.00, -0.00, -1.00, 208.5, 469.4)">e</text><text xml:space="preserve" font-family="GillSans,Gill Sans" font-size="36.5" fill="#000000" transform="matrix(1.00, 0.00, -0.00, -1.00, 225.4, 469.4)">y</text><text xml:space="preserve" font-family="GillSans,Gill Sans" font-size="36.5" fill="#000000" transform="matrix(1.00, 0.00, -0.00, -1.00, 241.4, 469.4)">:</text><text xml:space="preserve" font-family="GillSans,Gill Sans" font-size="36.5" fill="#000000" transform="matrix(1.00, 0.00, -0.00, -1.00, 245.8, 469.4)"> </text><text xml:space="preserve" font-family="GillSans,Gill Sans" font-size="62.5" fill="#000000" transform="matrix(1.00, 0.00, -0.00, -1.00, 164.0, 398.0)">•</text><text xml:space="preserve" font-family="GillSans,Gill Sans" font-size="36.5" fill="#000000" transform="matrix(1.00, 0.00, -0.00, -1.00, 203.2, 406.5)">r</text><text xml:space="preserve" font-family="GillSans,Gill Sans" font-size="36.5" fill="#000000" transform="matrix(1.00, 0.00, -0.00, -1.00, 216.9, 406.5)">e</text><text xml:space="preserve" font-family="GillSans,Gill Sans" font-size="36.5" fill="#000000" transform="matrix(1.00, 0.00, -0.00, -1.00, 234.4, 406.5)">a</text><text xml:space="preserve" font-family="GillSans,Gill Sans" font-size="36.5" fill="#000000" transform="matrix(1.00, 0.00, -0.00, -1.00, 250.0, 406.5)">d</text><text xml:space="preserve" font-family="GillSans,Gill Sans" font-size="36.5" fill="#000000" transform="matrix(1.00, 0.00, -0.00, -1.00, 268.6, 406.5)">,</text><text xml:space="preserve" font-family="GillSans,Gill Sans" font-size="36.5" fill="#000000" transform="matrix(1.00, 0.00, -0.00, -1.00, 273.0, 406.5)"> </text><text xml:space="preserve" font-family="GillSans,Gill Sans" font-size="36.5" fill="#000000" transform="matrix(1.00, 0.00, -0.00, -1.00, 283.1, 406.5)">t</text><text xml:space="preserve" font-family="GillSans,Gill Sans" font-size="36.5" fill="#000000" transform="matrix(1.00, 0.00, -0.00, -1.00, 295.3, 406.5)">y</text><text xml:space="preserve" font-family="GillSans,Gill Sans" font-size="36.5" fill="#000000" transform="matrix(1.00, 0.00, -0.00, -1.00, 311.3, 406.5)">p</text><text xml:space="preserve" font-family="GillSans,Gill Sans" font-size="36.5" fill="#000000" transform="matrix(1.00, 0.00, -0.00, -1.00, 329.5, 406.5)">e</text><text xml:space="preserve" font-family="GillSans,Gill Sans" font-size="36.5" fill="#000000" transform="matrix(1.00, 0.00, -0.00, -1.00, 347.0, 406.5)">-</text><text xml:space="preserve" font-family="GillSans,Gill Sans" font-size="36.5" fill="#000000" transform="matrix(1.00, 0.00, -0.00, -1.00, 358.9, 406.5)">c</text><text xml:space="preserve" font-family="GillSans,Gill Sans" font-size="36.5" fill="#000000" transform="matrix(1.00, 0.00, -0.00, -1.00, 374.9, 406.5)">o</text><text xml:space="preserve" font-family="GillSans,Gill Sans" font-size="36.5" fill="#000000" transform="matrix(1.00, 0.00, -0.00, -1.00, 395.0, 406.5)">n</text><text xml:space="preserve" font-family="GillSans,Gill Sans" font-size="36.5" fill="#000000" transform="matrix(1.00, 0.00, -0.00, -1.00, 412.7, 406.5)">v</text><text xml:space="preserve" font-family="GillSans,Gill Sans" font-size="36.5" fill="#000000" transform="matrix(1.00, 0.00, -0.00, -1.00, 428.0, 406.5)">e</text><text xml:space="preserve" font-family="GillSans,Gill Sans" font-size="36.5" fill="#000000" transform="matrix(1.00, 0.00, -0.00, -1.00, 445.5, 406.5)">r</text><text xml:space="preserve" font-family="GillSans,Gill Sans" font-size="36.5" fill="#000000" transform="matrix(1.00, 0.00, -0.00, -1.00, 460.7, 406.5)">t</text><text xml:space="preserve" font-family="GillSans,Gill Sans" font-size="36.5" fill="#000000" transform="matrix(1.00, 0.00, -0.00, -1.00, 472.9, 406.5)">,</text><text xml:space="preserve" font-family="GillSans,Gill Sans" font-size="36.5" fill="#000000" transform="matrix(1.00, 0.00, -0.00, -1.00, 477.2, 406.5)"> </text><text xml:space="preserve" font-family="GillSans,Gill Sans" font-size="36.5" fill="#000000" transform="matrix(1.00, 0.00, -0.00, -1.00, 487.4, 406.5)">a</text><text xml:space="preserve" font-family="GillSans,Gill Sans" font-size="36.5" fill="#000000" transform="matrix(1.00, 0.00, -0.00, -1.00, 503.0, 406.5)">n</text><text xml:space="preserve" font-family="GillSans,Gill Sans" font-size="36.5" fill="#000000" transform="matrix(1.00, 0.00, -0.00, -1.00, 521.2, 406.5)">d</text><text xml:space="preserve" font-family="GillSans,Gill Sans" font-size="36.5" fill="#000000" transform="matrix(1.00, 0.00, -0.00, -1.00, 539.9, 406.5)"> </text><text xml:space="preserve" font-family="GillSans,Gill Sans" font-size="36.5" fill="#000000" transform="matrix(1.00, 0.00, -0.00, -1.00, 550.0, 406.5)">v</text><text xml:space="preserve" font-family="GillSans,Gill Sans" font-size="36.5" fill="#000000" transform="matrix(1.00, 0.00, -0.00, -1.00, 566.0, 406.5)">a</text><text xml:space="preserve" font-family="GillSans,Gill Sans" font-size="36.5" fill="#000000" transform="matrix(1.00, 0.00, -0.00, -1.00, 581.6, 406.5)">l</text><text xml:space="preserve" font-family="GillSans,Gill Sans" font-size="36.5" fill="#000000" transform="matrix(1.00, 0.00, -0.00, -1.00, 589.6, 406.5)">i</text><text xml:space="preserve" font-family="GillSans,Gill Sans" font-size="36.5" fill="#000000" transform="matrix(1.00, 0.00, -0.00, -1.00, 597.6, 406.5)">d</text><text xml:space="preserve" font-family="GillSans,Gill Sans" font-size="36.5" fill="#000000" transform="matrix(1.00, 0.00, -0.00, -1.00, 616.3, 406.5)">a</text><text xml:space="preserve" font-family="GillSans,Gill Sans" font-size="36.5" fill="#000000" transform="matrix(1.00, 0.00, -0.00, -1.00, 631.8, 406.5)">t</text><text xml:space="preserve" font-family="GillSans,Gill Sans" font-size="36.5" fill="#000000" transform="matrix(1.00, 0.00, -0.00, -1.00, 644.0, 406.5)">e</text><text xml:space="preserve" font-family="GillSans,Gill Sans" font-size="36.5" fill="#000000" transform="matrix(1.00, 0.00, -0.00, -1.00, 661.5, 406.5)"> </text><text xml:space="preserve" font-family="GillSans,Gill Sans" font-size="36.5" fill="#000000" transform="matrix(1.00, 0.00, -0.00, -1.00, 671.7, 406.5)">i</text><text xml:space="preserve" font-family="GillSans,Gill Sans" font-size="36.5" fill="#000000" transform="matrix(1.00, 0.00, -0.00, -1.00, 679.7, 406.5)">n</text><text xml:space="preserve" font-family="GillSans,Gill Sans" font-size="36.5" fill="#000000" transform="matrix(1.00, 0.00, -0.00, -1.00, 698.0, 406.5)">p</text><text xml:space="preserve" font-family="GillSans,Gill Sans" font-size="36.5" fill="#000000" transform="matrix(1.00, 0.00, -0.00, -1.00, 716.2, 406.5)">u</text><text xml:space="preserve" font-family="GillSans,Gill Sans" font-size="36.5" fill="#000000" transform="matrix(1.00, 0.00, -0.00, -1.00, 734.5, 406.5)">t</text><text xml:space="preserve" font-family="GillSans,Gill Sans" font-size="36.5" fill="#000000" transform="matrix(1.00, 0.00, -0.00, -1.00, 746.7, 406.5)">s</text><text xml:space="preserve" font-family="GillSans,Gill Sans" font-size="36.5" fill="#000000" transform="matrix(1.00, 0.00, -0.00, -1.00, 760.8, 406.5)"> </text><text xml:space="preserve" font-family="GillSans,Gill Sans" font-size="62.5" fill="#000000" transform="matrix(1.00, 0.00, -0.00, -1.00, 164.0, 335.1)">•</text><text xml:space="preserve" font-family="GillSans,Gill Sans" font-size="36.5" fill="#000000" transform="matrix(1.00, 0.00, -0.00, -1.00, 203.2, 343.7)">c</text><text xml:space="preserve" font-family="GillSans,Gill Sans" font-size="36.5" fill="#000000" transform="matrix(1.00, 0.00, -0.00, -1.00, 219.2, 343.7)">a</text><text xml:space="preserve" font-family="GillSans,Gill Sans" font-size="36.5" fill="#000000" transform="matrix(1.00, 0.00, -0.00, -1.00, 234.7, 343.7)">l</text><text xml:space="preserve" font-family="GillSans,Gill Sans" font-size="36.5" fill="#000000" transform="matrix(1.00, 0.00, -0.00, -1.00, 242.8, 343.7)">l</text><text xml:space="preserve" font-family="GillSans,Gill Sans" font-size="36.5" fill="#000000" transform="matrix(1.00, 0.00, -0.00, -1.00, 250.8, 343.7)"> </text><text xml:space="preserve" font-family="GillSans,Gill Sans" font-size="36.5" fill="#000000" transform="matrix(1.00, 0.00, -0.00, -1.00, 260.9, 343.7)">G</text><text xml:space="preserve" font-family="GillSans,Gill Sans" font-size="36.5" fill="#000000" transform="matrix(1.00, 0.00, -0.00, -1.00, 288.0, 343.7)">a</text><text xml:space="preserve" font-family="GillSans,Gill Sans" font-size="36.5" fill="#000000" transform="matrix(1.00, 0.00, -0.00, -1.00, 303.6, 343.7)">m</text><text xml:space="preserve" font-family="GillSans,Gill Sans" font-size="36.5" fill="#000000" transform="matrix(1.00, 0.00, -0.00, -1.00, 331.7, 343.7)">e</text><text xml:space="preserve" font-family="GillSans,Gill Sans" font-size="36.5" fill="#000000" transform="matrix(1.00, 0.00, -0.00, -1.00, 349.2, 343.7)">S</text><text xml:space="preserve" font-family="GillSans,Gill Sans" font-size="36.5" fill="#000000" transform="matrix(1.00, 0.00, -0.00, -1.00, 366.0, 343.7)">u</text><text xml:space="preserve" font-family="GillSans,Gill Sans" font-size="36.5" fill="#000000" transform="matrix(1.00, 0.00, -0.00, -1.00, 384.2, 343.7)">b</text><text xml:space="preserve" font-family="GillSans,Gill Sans" font-size="36.5" fill="#000000" transform="matrix(1.00, 0.00, -0.00, -1.00, 402.5, 343.7)">s</text><text xml:space="preserve" font-family="GillSans,Gill Sans" font-size="36.5" fill="#000000" transform="matrix(1.00, 0.00, -0.00, -1.00, 416.6, 343.7)">y</text><text xml:space="preserve" font-family="GillSans,Gill Sans" font-size="36.5" fill="#000000" transform="matrix(1.00, 0.00, -0.00, -1.00, 432.6, 343.7)">s</text><text xml:space="preserve" font-family="GillSans,Gill Sans" font-size="36.5" fill="#000000" transform="matrix(1.00, 0.00, -0.00, -1.00, 446.6, 343.7)">t</text><text xml:space="preserve" font-family="GillSans,Gill Sans" font-size="36.5" fill="#000000" transform="matrix(1.00, 0.00, -0.00, -1.00, 458.8, 343.7)">e</text><text xml:space="preserve" font-family="GillSans,Gill Sans" font-size="36.5" fill="#000000" transform="matrix(1.00, 0.00, -0.00, -1.00, 476.3, 343.7)">m</text><text xml:space="preserve" font-family="GillSans,Gill Sans" font-size="36.5" fill="#000000" transform="matrix(1.00, 0.00, -0.00, -1.00, 504.5, 343.7)"> </text><text xml:space="preserve" font-family="GillSans,Gill Sans" font-size="36.5" fill="#000000" transform="matrix(1.00, 0.00, -0.00, -1.00, 514.6, 343.7)">m</text><text xml:space="preserve" font-family="GillSans,Gill Sans" font-size="36.5" fill="#000000" transform="matrix(1.00, 0.00, -0.00, -1.00, 542.8, 343.7)">e</text><text xml:space="preserve" font-family="GillSans,Gill Sans" font-size="36.5" fill="#000000" transform="matrix(1.00, 0.00, -0.00, -1.00, 560.3, 343.7)">t</text><text xml:space="preserve" font-family="GillSans,Gill Sans" font-size="36.5" fill="#000000" transform="matrix(1.00, 0.00, -0.00, -1.00, 572.5, 343.7)">h</text><text xml:space="preserve" font-family="GillSans,Gill Sans" font-size="36.5" fill="#000000" transform="matrix(1.00, 0.00, -0.00, -1.00, 590.7, 343.7)">o</text><text xml:space="preserve" font-family="GillSans,Gill Sans" font-size="36.5" fill="#000000" transform="matrix(1.00, 0.00, -0.00, -1.00, 610.9, 343.7)">d</text><text xml:space="preserve" font-family="GillSans,Gill Sans" font-size="36.5" fill="#000000" transform="matrix(1.00, 0.00, -0.00, -1.00, 629.5, 343.7)">s</text><text xml:space="preserve" font-family="GillSans,Gill Sans" font-size="36.5" fill="#000000" transform="matrix(1.00, 0.00, -0.00, -1.00, 643.6, 343.7)"> </text><text xml:space="preserve" font-family="GillSans,Gill Sans" font-size="62.5" fill="#000000" transform="matrix(1.00, 0.00, -0.00, -1.00, 164.0, 272.3)">•</text><text xml:space="preserve" font-family="GillSans,Gill Sans" font-size="36.5" fill="#000000" transform="matrix(1.00, 0.00, -0.00, -1.00, 203.2, 280.8)">a</text><text xml:space="preserve" font-family="GillSans,Gill Sans" font-size="36.5" fill="#000000" transform="matrix(1.00, 0.00, -0.00, -1.00, 218.7, 280.8)">s</text><text xml:space="preserve" font-family="GillSans,Gill Sans" font-size="36.5" fill="#000000" transform="matrix(1.00, 0.00, -0.00, -1.00, 232.8, 280.8)">s</text><text xml:space="preserve" font-family="GillSans,Gill Sans" font-size="36.5" fill="#000000" transform="matrix(1.00, 0.00, -0.00, -1.00, 246.8, 280.8)">e</text><text xml:space="preserve" font-family="GillSans,Gill Sans" font-size="36.5" fill="#000000" transform="matrix(1.00, 0.00, -0.00, -1.00, 264.3, 280.8)">m</text><text xml:space="preserve" font-family="GillSans,Gill Sans" font-size="36.5" fill="#000000" transform="matrix(1.00, 0.00, -0.00, -1.00, 292.5, 280.8)">b</text><text xml:space="preserve" font-family="GillSans,Gill Sans" font-size="36.5" fill="#000000" transform="matrix(1.00, 0.00, -0.00, -1.00, 310.8, 280.8)">l</text><text xml:space="preserve" font-family="GillSans,Gill Sans" font-size="36.5" fill="#000000" transform="matrix(1.00, 0.00, -0.00, -1.00, 318.8, 280.8)">e</text><text xml:space="preserve" font-family="GillSans,Gill Sans" font-size="36.5" fill="#000000" transform="matrix(1.00, 0.00, -0.00, -1.00, 336.3, 280.8)"> </text><text xml:space="preserve" font-family="GillSans,Gill Sans" font-size="36.5" fill="#000000" transform="matrix(1.00, 0.00, -0.00, -1.00, 346.5, 280.8)">o</text><text xml:space="preserve" font-family="GillSans,Gill Sans" font-size="36.5" fill="#000000" transform="matrix(1.00, 0.00, -0.00, -1.00, 366.6, 280.8)">u</text><text xml:space="preserve" font-family="GillSans,Gill Sans" font-size="36.5" fill="#000000" transform="matrix(1.00, 0.00, -0.00, -1.00, 384.9, 280.8)">t</text><text xml:space="preserve" font-family="GillSans,Gill Sans" font-size="36.5" fill="#000000" transform="matrix(1.00, 0.00, -0.00, -1.00, 397.0, 280.8)">p</text><text xml:space="preserve" font-family="GillSans,Gill Sans" font-size="36.5" fill="#000000" transform="matrix(1.00, 0.00, -0.00, -1.00, 415.3, 280.8)">u</text><text xml:space="preserve" font-family="GillSans,Gill Sans" font-size="36.5" fill="#000000" transform="matrix(1.00, 0.00, -0.00, -1.00, 433.6, 280.8)">t</text><text xml:space="preserve" font-family="GillSans,Gill Sans" font-size="36.5" fill="#000000" transform="matrix(1.00, 0.00, -0.00, -1.00, 445.8, 280.8)"> </text><text xml:space="preserve" font-family="GillSans,Gill Sans" font-size="36.5" fill="#000000" transform="matrix(1.00, 0.00, -0.00, -1.00, 455.9, 280.8)">f</text><text xml:space="preserve" font-family="GillSans,Gill Sans" font-size="36.5" fill="#000000" transform="matrix(1.00, 0.00, -0.00, -1.00, 464.7, 280.8)">o</text><text xml:space="preserve" font-family="GillSans,Gill Sans" font-size="36.5" fill="#000000" transform="matrix(1.00, 0.00, -0.00, -1.00, 484.8, 280.8)">r</text><text xml:space="preserve" font-family="GillSans,Gill Sans" font-size="36.5" fill="#000000" transform="matrix(1.00, 0.00, -0.00, -1.00, 499.3, 280.8)"> </text><text xml:space="preserve" font-family="GillSans,Gill Sans" font-size="36.5" fill="#000000" transform="matrix(1.00, 0.00, -0.00, -1.00, 509.4, 280.8)">r</text><text xml:space="preserve" font-family="GillSans,Gill Sans" font-size="36.5" fill="#000000" transform="matrix(1.00, 0.00, -0.00, -1.00, 523.2, 280.8)">e</text><text xml:space="preserve" font-family="GillSans,Gill Sans" font-size="36.5" fill="#000000" transform="matrix(1.00, 0.00, -0.00, -1.00, 540.7, 280.8)">t</text><text xml:space="preserve" font-family="GillSans,Gill Sans" font-size="36.5" fill="#000000" transform="matrix(1.00, 0.00, -0.00, -1.00, 552.9, 280.8)">u</text><text xml:space="preserve" font-family="GillSans,Gill Sans" font-size="36.5" fill="#000000" transform="matrix(1.00, 0.00, -0.00, -1.00, 571.1, 280.8)">r</text><text xml:space="preserve" font-family="GillSans,Gill Sans" font-size="36.5" fill="#000000" transform="matrix(1.00, 0.00, -0.00, -1.00, 585.6, 280.8)">n</text><text xml:space="preserve" font-family="GillSans,Gill Sans" font-size="36.5" fill="#000000" transform="matrix(1.00, 0.00, -0.00, -1.00, 603.9, 280.8)"> </text><text xml:space="preserve" font-family="GillSans,Gill Sans" font-size="62.5" fill="#000000" transform="matrix(1.00, 0.00, -0.00, -1.00, 164.0, 209.4)">•</text><text xml:space="preserve" font-family="GillSans,Gill Sans" font-size="36.5" fill="#000000" transform="matrix(1.00, 0.00, -0.00, -1.00, 203.2, 217.9)">c</text><text xml:space="preserve" font-family="GillSans,Gill Sans" font-size="36.5" fill="#000000" transform="matrix(1.00, 0.00, -0.00, -1.00, 219.2, 217.9)">o</text><text xml:space="preserve" font-family="GillSans,Gill Sans" font-size="36.5" fill="#000000" transform="matrix(1.00, 0.00, -0.00, -1.00, 239.3, 217.9)">m</text><text xml:space="preserve" font-family="GillSans,Gill Sans" font-size="36.5" fill="#000000" transform="matrix(1.00, 0.00, -0.00, -1.00, 267.5, 217.9)">m</text><text xml:space="preserve" font-family="GillSans,Gill Sans" font-size="36.5" fill="#000000" transform="matrix(1.00, 0.00, -0.00, -1.00, 295.7, 217.9)">i</text><text xml:space="preserve" font-family="GillSans,Gill Sans" font-size="36.5" fill="#000000" transform="matrix(1.00, 0.00, -0.00, -1.00, 303.7, 217.9)">t</text><text xml:space="preserve" font-family="GillSans,Gill Sans" font-size="36.5" fill="#000000" transform="matrix(1.00, 0.00, -0.00, -1.00, 315.8, 217.9)"> </text><text xml:space="preserve" font-family="GillSans,Gill Sans" font-size="36.5" fill="#000000" transform="matrix(1.00, 0.00, -0.00, -1.00, 326.0, 217.9)">t</text><text xml:space="preserve" font-family="GillSans,Gill Sans" font-size="36.5" fill="#000000" transform="matrix(1.00, 0.00, -0.00, -1.00, 338.2, 217.9)">h</text><text xml:space="preserve" font-family="GillSans,Gill Sans" font-size="36.5" fill="#000000" transform="matrix(1.00, 0.00, -0.00, -1.00, 356.4, 217.9)">e</text><text xml:space="preserve" font-family="GillSans,Gill Sans" font-size="36.5" fill="#000000" transform="matrix(1.00, 0.00, -0.00, -1.00, 373.9, 217.9)"> </text><text xml:space="preserve" font-family="GillSans,Gill Sans" font-size="36.5" fill="#000000" transform="matrix(1.00, 0.00, -0.00, -1.00, 384.1, 217.9)">D</text><text xml:space="preserve" font-family="GillSans,Gill Sans" font-size="36.5" fill="#000000" transform="matrix(1.00, 0.00, -0.00, -1.00, 411.5, 217.9)">a</text><text xml:space="preserve" font-family="GillSans,Gill Sans" font-size="36.5" fill="#000000" transform="matrix(1.00, 0.00, -0.00, -1.00, 427.1, 217.9)">t</text><text xml:space="preserve" font-family="GillSans,Gill Sans" font-size="36.5" fill="#000000" transform="matrix(1.00, 0.00, -0.00, -1.00, 439.2, 217.9)">a</text><text xml:space="preserve" font-family="GillSans,Gill Sans" font-size="36.5" fill="#000000" transform="matrix(1.00, 0.00, -0.00, -1.00, 454.8, 217.9)">S</text><text xml:space="preserve" font-family="GillSans,Gill Sans" font-size="36.5" fill="#000000" transform="matrix(1.00, 0.00, -0.00, -1.00, 471.6, 217.9)">o</text><text xml:space="preserve" font-family="GillSans,Gill Sans" font-size="36.5" fill="#000000" transform="matrix(1.00, 0.00, -0.00, -1.00, 491.7, 217.9)">u</text><text xml:space="preserve" font-family="GillSans,Gill Sans" font-size="36.5" fill="#000000" transform="matrix(1.00, 0.00, -0.00, -1.00, 510.0, 217.9)">r</text><text xml:space="preserve" font-family="GillSans,Gill Sans" font-size="36.5" fill="#000000" transform="matrix(1.00, 0.00, -0.00, -1.00, 523.5, 217.9)">c</text><text xml:space="preserve" font-family="GillSans,Gill Sans" font-size="36.5" fill="#000000" transform="matrix(1.00, 0.00, -0.00, -1.00, 539.5, 217.9)">e</text><text xml:space="preserve" font-family="GillSans,Gill Sans" font-size="36.5" fill="#000000" transform="matrix(1.00, 0.00, -0.00, -1.00, 557.0, 217.9)"> </text><text xml:space="preserve" font-family="GillSans,Gill Sans" font-size="36.5" fill="#000000" transform="matrix(1.00, 0.00, -0.00, -1.00, 567.2, 217.9)">t</text><text xml:space="preserve" font-family="GillSans,Gill Sans" font-size="36.5" fill="#000000" transform="matrix(1.00, 0.00, -0.00, -1.00, 579.4, 217.9)">r</text><text xml:space="preserve" font-family="GillSans,Gill Sans" font-size="36.5" fill="#000000" transform="matrix(1.00, 0.00, -0.00, -1.00, 593.8, 217.9)">a</text><text xml:space="preserve" font-family="GillSans,Gill Sans" font-size="36.5" fill="#000000" transform="matrix(1.00, 0.00, -0.00, -1.00, 609.4, 217.9)">n</text><text xml:space="preserve" font-family="GillSans,Gill Sans" font-size="36.5" fill="#000000" transform="matrix(1.00, 0.00, -0.00, -1.00, 627.7, 217.9)">s</text><text xml:space="preserve" font-family="GillSans,Gill Sans" font-size="36.5" fill="#000000" transform="matrix(1.00, 0.00, -0.00, -1.00, 641.7, 217.9)">a</text><text xml:space="preserve" font-family="GillSans,Gill Sans" font-size="36.5" fill="#000000" transform="matrix(1.00, 0.00, -0.00, -1.00, 657.3, 217.9)">c</text><text xml:space="preserve" font-family="GillSans,Gill Sans" font-size="36.5" fill="#000000" transform="matrix(1.00, 0.00, -0.00, -1.00, 673.3, 217.9)">t</text><text xml:space="preserve" font-family="GillSans,Gill Sans" font-size="36.5" fill="#000000" transform="matrix(1.00, 0.00, -0.00, -1.00, 685.5, 217.9)">i</text><text xml:space="preserve" font-family="GillSans,Gill Sans" font-size="36.5" fill="#000000" transform="matrix(1.00, 0.00, -0.00, -1.00, 693.5, 217.9)">o</text><text xml:space="preserve" font-family="GillSans,Gill Sans" font-size="36.5" fill="#000000" transform="matrix(1.00, 0.00, -0.00, -1.00, 713.7, 217.9)">n</text><text xml:space="preserve" font-family="GillSans,Gill Sans" font-size="36.5" fill="#000000" transform="matrix(1.00, 0.00, -0.00, -1.00, 731.9, 217.9)">,</text><text xml:space="preserve" font-family="GillSans,Gill Sans" font-size="36.5" fill="#000000" transform="matrix(1.00, 0.00, -0.00, -1.00, 736.3, 217.9)"> </text><text xml:space="preserve" font-family="GillSans,Gill Sans" font-size="36.5" fill="#000000" transform="matrix(1.00, 0.00, -0.00, -1.00, 746.4, 217.9)">i</text><text xml:space="preserve" font-family="GillSans,Gill Sans" font-size="36.5" fill="#000000" transform="matrix(1.00, 0.00, -0.00, -1.00, 754.5, 217.9)">f</text><text xml:space="preserve" font-family="GillSans,Gill Sans" font-size="36.5" fill="#000000" transform="matrix(1.00, 0.00, -0.00, -1.00, 763.6, 217.9)"> </text><text xml:space="preserve" font-family="GillSans,Gill Sans" font-size="36.5" fill="#000000" transform="matrix(1.00, 0.00, -0.00, -1.00, 773.7, 217.9)">c</text><text xml:space="preserve" font-family="GillSans,Gill Sans" font-size="36.5" fill="#000000" transform="matrix(1.00, 0.00, -0.00, -1.00, 789.7, 217.9)">h</text><text xml:space="preserve" font-family="GillSans,Gill Sans" font-size="36.5" fill="#000000" transform="matrix(1.00, 0.00, -0.00, -1.00, 808.0, 217.9)">a</text><text xml:space="preserve" font-family="GillSans,Gill Sans" font-size="36.5" fill="#000000" transform="matrix(1.00, 0.00, -0.00, -1.00, 823.6, 217.9)">n</text><text xml:space="preserve" font-family="GillSans,Gill Sans" font-size="36.5" fill="#000000" transform="matrix(1.00, 0.00, -0.00, -1.00, 841.9, 217.9)">g</text><text xml:space="preserve" font-family="GillSans,Gill Sans" font-size="36.5" fill="#000000" transform="matrix(1.00, 0.00, -0.00, -1.00, 857.5, 217.9)">e</text><text xml:space="preserve" font-family="GillSans,Gill Sans" font-size="36.5" fill="#000000" transform="matrix(1.00, 0.00, -0.00, -1.00, 875.0, 217.9)">s</text><text xml:space="preserve" font-family="GillSans,Gill Sans" font-size="36.5" fill="#000000" transform="matrix(1.00, 0.00, -0.00, -1.00, 889.0, 217.9)"> </text><text xml:space="preserve" font-family="GillSans,Gill Sans" font-size="36.5" fill="#000000" transform="matrix(1.00, 0.00, -0.00, -1.00, 203.2, 175.9)">s</text><text xml:space="preserve" font-family="GillSans,Gill Sans" font-size="36.5" fill="#000000" transform="matrix(1.00, 0.00, -0.00, -1.00, 217.2, 175.9)">h</text><text xml:space="preserve" font-family="GillSans,Gill Sans" font-size="36.5" fill="#000000" transform="matrix(1.00, 0.00, -0.00, -1.00, 235.5, 175.9)">o</text><text xml:space="preserve" font-family="GillSans,Gill Sans" font-size="36.5" fill="#000000" transform="matrix(1.00, 0.00, -0.00, -1.00, 255.6, 175.9)">u</text><text xml:space="preserve" font-family="GillSans,Gill Sans" font-size="36.5" fill="#000000" transform="matrix(1.00, 0.00, -0.00, -1.00, 273.9, 175.9)">l</text><text xml:space="preserve" font-family="GillSans,Gill Sans" font-size="36.5" fill="#000000" transform="matrix(1.00, 0.00, -0.00, -1.00, 281.9, 175.9)">d</text><text xml:space="preserve" font-family="GillSans,Gill Sans" font-size="36.5" fill="#000000" transform="matrix(1.00, 0.00, -0.00, -1.00, 300.5, 175.9)"> </text><text xml:space="preserve" font-family="GillSans,Gill Sans" font-size="36.5" fill="#000000" transform="matrix(1.00, 0.00, -0.00, -1.00, 310.7, 175.9)">b</text><text xml:space="preserve" font-family="GillSans,Gill Sans" font-size="36.5" fill="#000000" transform="matrix(1.00, 0.00, -0.00, -1.00, 328.9, 175.9)">e</text><text xml:space="preserve" font-family="GillSans,Gill Sans" font-size="36.5" fill="#000000" transform="matrix(1.00, 0.00, -0.00, -1.00, 346.5, 175.9)"> </text><text xml:space="preserve" font-family="GillSans,Gill Sans" font-size="36.5" fill="#000000" transform="matrix(1.00, 0.00, -0.00, -1.00, 356.6, 175.9)">k</text><text xml:space="preserve" font-family="GillSans,Gill Sans" font-size="36.5" fill="#000000" transform="matrix(1.00, 0.00, -0.00, -1.00, 373.0, 175.9)">e</text><text xml:space="preserve" font-family="GillSans,Gill Sans" font-size="36.5" fill="#000000" transform="matrix(1.00, 0.00, -0.00, -1.00, 390.5, 175.9)">p</text><text xml:space="preserve" font-family="GillSans,Gill Sans" font-size="36.5" fill="#000000" transform="matrix(1.00, 0.00, -0.00, -1.00, 408.8, 175.9)">t</text><text xml:space="preserve" font-family="GillSans,Gill Sans" font-size="36.5" fill="#000000" transform="matrix(1.00, 0.00, -0.00, -1.00, 421.0, 175.9)"> </text><text xml:space="preserve" font-family="GillSans,Gill Sans" font-size="62.5" fill="#000000" transform="matrix(1.00, 0.00, -0.00, -1.00, 164.0, 104.5)">•</text><text xml:space="preserve" font-family="GillSans,Gill Sans" font-size="36.5" fill="#000000" transform="matrix(1.00, 0.00, -0.00, -1.00, 203.2, 113.0)">r</text><text xml:space="preserve" font-family="GillSans,Gill Sans" font-size="36.5" fill="#000000" transform="matrix(1.00, 0.00, -0.00, -1.00, 216.9, 113.0)">e</text><text xml:space="preserve" font-family="GillSans,Gill Sans" font-size="36.5" fill="#000000" transform="matrix(1.00, 0.00, -0.00, -1.00, 234.4, 113.0)">s</text><text xml:space="preserve" font-family="GillSans,Gill Sans" font-size="36.5" fill="#000000" transform="matrix(1.00, 0.00, -0.00, -1.00, 248.4, 113.0)">p</text><text xml:space="preserve" font-family="GillSans,Gill Sans" font-size="36.5" fill="#000000" transform="matrix(1.00, 0.00, -0.00, -1.00, 266.7, 113.0)">o</text><text xml:space="preserve" font-family="GillSans,Gill Sans" font-size="36.5" fill="#000000" transform="matrix(1.00, 0.00, -0.00, -1.00, 286.9, 113.0)">n</text><text xml:space="preserve" font-family="GillSans,Gill Sans" font-size="36.5" fill="#000000" transform="matrix(1.00, 0.00, -0.00, -1.00, 305.1, 113.0)">d</text><text xml:space="preserve" font-family="GillSans,Gill Sans" font-size="36.5" fill="#000000" transform="matrix(1.00, 0.00, -0.00, -1.00, 323.8, 113.0)"> </text><text xml:space="preserve" font-family="GillSans,Gill Sans" font-size="36.5" fill="#000000" transform="matrix(1.00, 0.00, -0.00, -1.00, 333.9, 113.0)">t</text><text xml:space="preserve" font-family="GillSans,Gill Sans" font-size="36.5" fill="#000000" transform="matrix(1.00, 0.00, -0.00, -1.00, 346.1, 113.0)">o</text><text xml:space="preserve" font-family="GillSans,Gill Sans" font-size="36.5" fill="#000000" transform="matrix(1.00, 0.00, -0.00, -1.00, 366.2, 113.0)"> </text><text xml:space="preserve" font-family="GillSans,Gill Sans" font-size="36.5" fill="#000000" transform="matrix(1.00, 0.00, -0.00, -1.00, 376.4, 113.0)">t</text><text xml:space="preserve" font-family="GillSans,Gill Sans" font-size="36.5" fill="#000000" transform="matrix(1.00, 0.00, -0.00, -1.00, 388.5, 113.0)">h</text><text xml:space="preserve" font-family="GillSans,Gill Sans" font-size="36.5" fill="#000000" transform="matrix(1.00, 0.00, -0.00, -1.00, 406.8, 113.0)">e</text><text xml:space="preserve" font-family="GillSans,Gill Sans" font-size="36.5" fill="#000000" transform="matrix(1.00, 0.00, -0.00, -1.00, 424.3, 113.0)"> </text><text xml:space="preserve" font-family="GillSans,Gill Sans" font-size="36.5" fill="#000000" transform="matrix(1.00, 0.00, -0.00, -1.00, 434.5, 113.0)">c</text><text xml:space="preserve" font-family="GillSans,Gill Sans" font-size="36.5" fill="#000000" transform="matrix(1.00, 0.00, -0.00, -1.00, 450.5, 113.0)">l</text><text xml:space="preserve" font-family="GillSans,Gill Sans" font-size="36.5" fill="#000000" transform="matrix(1.00, 0.00, -0.00, -1.00, 458.5, 113.0)">i</text><text xml:space="preserve" font-family="GillSans,Gill Sans" font-size="36.5" fill="#000000" transform="matrix(1.00, 0.00, -0.00, -1.00, 466.5, 113.0)">e</text><text xml:space="preserve" font-family="GillSans,Gill Sans" font-size="36.5" fill="#000000" transform="matrix(1.00, 0.00, -0.00, -1.00, 484.0, 113.0)">n</text><text xml:space="preserve" font-family="GillSans,Gill Sans" font-size="36.5" fill="#000000" transform="matrix(1.00, 0.00, -0.00, -1.00, 502.3, 113.0)">t</text></g></svg>