<?xml version="1.0" encoding="UTF-8" standalone="no"?><svg xmlns="http://www.w3.org/2000/svg" xmlns:xlink="http://www.w3.org/1999/xlink" clip-rule="evenodd" stroke-miterlimit="10" viewBox="0 0 1024 768"><desc>SVG generated by Keynote</desc><defs></defs><g transform="matrix(1.00, 0.00, -0.00, -1.00, 0.0, 768.0)"><path d="M 0.0 768.0 L 1024.0 768.0 L 1024.0 0.0 L 0.0 0.0 Z M 0.0 768.0 " fill="#FEFFFF"></path><text xml:space="preserve" font-family="GillSans,Gill Sans" font-size="71.8" fill="#000000" transform="matrix(1.00, 0.00, -0.00, -1.00, 129.0, 579.6)">•</text><text xml:space="preserve" font-family="GillSans,Gill Sans" font-size="42.0" fill="#000000" transform="matrix(1.00, 0.00, -0.00, -1.00, 174.0, 589.7)">S</text><text xml:space="preserve" font-family="GillSans,Gill Sans" font-size="42.0" fill="#000000" transform="matrix(1.00, 0.00, -0.00, -1.00, 193.2, 589.7)">e</text><text xml:space="preserve" font-family="GillSans,Gill Sans" font-size="42.0" fill="#000000" transform="matrix(1.00, 0.00, -0.00, -1.00, 213.4, 589.7)">r</text><text xml:space="preserve" font-family="GillSans,Gill Sans" font-size="42.0" fill="#000000" transform="matrix(1.00, 0.00, -0.00, -1.00, 231.2, 589.7)">v</text><text xml:space="preserve" font-family="GillSans,Gill Sans" font-size="42.0" fill="#000000" transform="matrix(1.00, 0.00, -0.00, -1.00, 249.6, 589.7)">i</text><text xml:space="preserve" font-family="GillSans,Gill Sans" font-size="42.0" fill="#000000" transform="matrix(1.00, 0.00, -0.00, -1.00, 258.8, 589.7)">c</text><text xml:space="preserve" font-family="GillSans,Gill Sans" font-size="42.0" fill="#000000" transform="matrix(1.00, 0.00, -0.00, -1.00, 277.2, 589.7)">e</text><text xml:space="preserve" font-family="GillSans,Gill Sans" font-size="42.0" fill="#000000" transform="matrix(1.00, 0.00, -0.00, -1.00, 297.4, 589.7)">s</text><text xml:space="preserve" font-family="GillSans,Gill Sans" font-size="42.0" fill="#000000" transform="matrix(1.00, 0.00, -0.00, -1.00, 313.5, 589.7)"> </text><text xml:space="preserve" font-family="GillSans,Gill Sans" font-size="42.0" fill="#000000" transform="matrix(1.00, 0.00, -0.00, -1.00, 325.2, 589.7)">p</text><text xml:space="preserve" font-family="GillSans,Gill Sans" font-size="42.0" fill="#000000" transform="matrix(1.00, 0.00, -0.00, -1.00, 346.2, 589.7)">r</text><text xml:space="preserve" font-family="GillSans,Gill Sans" font-size="42.0" fill="#000000" transform="matrix(1.00, 0.00, -0.00, -1.00, 361.8, 589.7)">o</text><text xml:space="preserve" font-family="GillSans,Gill Sans" font-size="42.0" fill="#000000" transform="matrix(1.00, 0.00, -0.00, -1.00, 384.5, 589.7)">v</text><text xml:space="preserve" font-family="GillSans,Gill Sans" font-size="42.0" fill="#000000" transform="matrix(1.00, 0.00, -0.00, -1.00, 402.9, 589.7)">i</text><text xml:space="preserve" font-family="GillSans,Gill Sans" font-size="42.0" fill="#000000" transform="matrix(1.00, 0.00, -0.00, -1.00, 412.1, 589.7)">d</text><text xml:space="preserve" font-family="GillSans,Gill Sans" font-size="42.0" fill="#000000" transform="matrix(1.00, 0.00, -0.00, -1.00, 433.5, 589.7)">e</text><text xml:space="preserve" font-family="GillSans,Gill Sans" font-size="42.0" fill="#000000" transform="matrix(1.00, 0.00, -0.00, -1.00, 453.6, 589.7)"> </text><text xml:space="preserve" font-family="GillSans,Gill Sans" font-size="42.0" fill="#000000" transform="matrix(1.00, 0.00, -0.00, -1.00, 465.3, 589.7)">t</text><text xml:space="preserve" font-family="GillSans,Gill Sans" font-size="42.0" fill="#000000" transform="matrix(1.00, 0.00, -0.00, -1.00, 479.3, 589.7)">h</text><text xml:space="preserve" font-family="GillSans,Gill Sans" font-size="42.0" fill="#000000" transform="matrix(1.00, 0.00, -0.00, -1.00, 500.3, 589.7)">e</text><text xml:space="preserve" font-family="GillSans,Gill Sans" font-size="42.0" fill="#000000" transform="matrix(1.00, 0.00, -0.00, -1.00, 520.4, 589.7)"> </text><text xml:space="preserve" font-family="GillSans,Gill Sans" font-size="42.0" fill="#000000" transform="matrix(1.00, 0.00, -0.00, -1.00, 532.1, 589.7)">m</text><text xml:space="preserve" font-family="GillSans,Gill Sans" font-size="42.0" fill="#000000" transform="matrix(1.00, 0.00, -0.00, -1.00, 564.5, 589.7)">a</text><text xml:space="preserve" font-family="GillSans,Gill Sans" font-size="42.0" fill="#000000" transform="matrix(1.00, 0.00, -0.00, -1.00, 582.4, 589.7)">s</text><text xml:space="preserve" font-family="GillSans,Gill Sans" font-size="42.0" fill="#000000" transform="matrix(1.00, 0.00, -0.00, -1.00, 598.5, 589.7)">t</text><text xml:space="preserve" font-family="GillSans,Gill Sans" font-size="42.0" fill="#000000" transform="matrix(1.00, 0.00, -0.00, -1.00, 612.5, 589.7)">e</text><text xml:space="preserve" font-family="GillSans,Gill Sans" font-size="42.0" fill="#000000" transform="matrix(1.00, 0.00, -0.00, -1.00, 632.6, 589.7)">r</text><text xml:space="preserve" font-family="GillSans,Gill Sans" font-size="42.0" fill="#000000" transform="matrix(1.00, 0.00, -0.00, -1.00, 649.3, 589.7)"> </text><text xml:space="preserve" font-family="GillSans,Gill Sans" font-size="42.0" fill="#000000" transform="matrix(1.00, 0.00, -0.00, -1.00, 660.9, 589.7)">t</text><text xml:space="preserve" font-family="GillSans,Gill Sans" font-size="42.0" fill="#000000" transform="matrix(1.00, 0.00, -0.00, -1.00, 674.9, 589.7)">r</text><text xml:space="preserve" font-family="GillSans,Gill Sans" font-size="42.0" fill="#000000" transform="matrix(1.00, 0.00, -0.00, -1.00, 691.5, 589.7)">a</text><text xml:space="preserve" font-family="GillSans,Gill Sans" font-size="42.0" fill="#000000" transform="matrix(1.00, 0.00, -0.00, -1.00, 709.5, 589.7)">n</text><text xml:space="preserve" font-family="GillSans,Gill Sans" font-size="42.0" fill="#000000" transform="matrix(1.00, 0.00, -0.00, -1.00, 730.5, 589.7)">s</text><text xml:space="preserve" font-family="GillSans,Gill Sans" font-size="42.0" fill="#000000" transform="matrix(1.00, 0.00, -0.00, -1.00, 746.6, 589.7)">a</text><text xml:space="preserve" font-family="GillSans,Gill Sans" font-size="42.0" fill="#000000" transform="matrix(1.00, 0.00, -0.00, -1.00, 764.5, 589.7)">c</text><text xml:space="preserve" font-family="GillSans,Gill Sans" font-size="42.0" fill="#000000" transform="matrix(1.00, 0.00, -0.00, -1.00, 782.9, 589.7)">t</text><text xml:space="preserve" font-family="GillSans,Gill Sans" font-size="42.0" fill="#000000" transform="matrix(1.00, 0.00, -0.00, -1.00, 796.9, 589.7)">i</text><text xml:space="preserve" font-family="GillSans,Gill Sans" font-size="42.0" fill="#000000" transform="matrix(1.00, 0.00, -0.00, -1.00, 806.1, 589.7)">o</text><text xml:space="preserve" font-family="GillSans,Gill Sans" font-size="42.0" fill="#000000" transform="matrix(1.00, 0.00, -0.00, -1.00, 829.3, 589.7)">n</text><text xml:space="preserve" font-family="GillSans,Gill Sans" font-size="42.0" fill="#000000" transform="matrix(1.00, 0.00, -0.00, -1.00, 850.3, 589.7)"> </text><text xml:space="preserve" font-family="GillSans,Gill Sans" font-size="42.0" fill="#000000" transform="matrix(1.00, 0.00, -0.00, -1.00, 174.0, 540.7)">s</text><text xml:space="preserve" font-family="GillSans,Gill Sans" font-size="42.0" fill="#000000" transform="matrix(1.00, 0.00, -0.00, -1.00, 190.2, 540.7)">c</text><text xml:space="preserve" font-family="GillSans,Gill Sans" font-size="42.0" fill="#000000" transform="matrix(1.00, 0.00, -0.00, -1.00, 208.5, 540.7)">o</text><text xml:space="preserve" font-family="GillSans,Gill Sans" font-size="42.0" fill="#000000" transform="matrix(1.00, 0.00, -0.00, -1.00, 231.7, 540.7)">p</text><text xml:space="preserve" font-family="GillSans,Gill Sans" font-size="42.0" fill="#000000" transform="matrix(1.00, 0.00, -0.00, -1.00, 252.7, 540.7)">e</text><text xml:space="preserve" font-family="GillSans,Gill Sans" font-size="42.0" fill="#000000" transform="matrix(1.00, 0.00, -0.00, -1.00, 272.8, 540.7)"> </text><text xml:space="preserve" font-family="GillSans,Gill Sans" font-size="42.0" fill="#000000" transform="matrix(1.00, 0.00, -0.00, -1.00, 284.5, 540.7)">f</text><text xml:space="preserve" font-family="GillSans,Gill Sans" font-size="42.0" fill="#000000" transform="matrix(1.00, 0.00, -0.00, -1.00, 294.6, 540.7)">o</text><text xml:space="preserve" font-family="GillSans,Gill Sans" font-size="42.0" fill="#000000" transform="matrix(1.00, 0.00, -0.00, -1.00, 317.7, 540.7)">r</text><text xml:space="preserve" font-family="GillSans,Gill Sans" font-size="42.0" fill="#000000" transform="matrix(1.00, 0.00, -0.00, -1.00, 334.4, 540.7)"> </text><text xml:space="preserve" font-family="GillSans,Gill Sans" font-size="42.0" fill="#000000" transform="matrix(1.00, 0.00, -0.00, -1.00, 346.0, 540.7)">t</text><text xml:space="preserve" font-family="GillSans,Gill Sans" font-size="42.0" fill="#000000" transform="matrix(1.00, 0.00, -0.00, -1.00, 360.0, 540.7)">h</text><text xml:space="preserve" font-family="GillSans,Gill Sans" font-size="42.0" fill="#000000" transform="matrix(1.00, 0.00, -0.00, -1.00, 381.0, 540.7)">e</text><text xml:space="preserve" font-family="GillSans,Gill Sans" font-size="42.0" fill="#000000" transform="matrix(1.00, 0.00, -0.00, -1.00, 401.1, 540.7)">i</text><text xml:space="preserve" font-family="GillSans,Gill Sans" font-size="42.0" fill="#000000" transform="matrix(1.00, 0.00, -0.00, -1.00, 410.4, 540.7)">r</text><text xml:space="preserve" font-family="GillSans,Gill Sans" font-size="42.0" fill="#000000" transform="matrix(1.00, 0.00, -0.00, -1.00, 427.0, 540.7)"> </text><text xml:space="preserve" font-family="GillSans,Gill Sans" font-size="42.0" fill="#000000" transform="matrix(1.00, 0.00, -0.00, -1.00, 438.7, 540.7)">w</text><text xml:space="preserve" font-family="GillSans,Gill Sans" font-size="42.0" fill="#000000" transform="matrix(1.00, 0.00, -0.00, -1.00, 468.0, 540.7)">o</text><text xml:space="preserve" font-family="GillSans,Gill Sans" font-size="42.0" fill="#000000" transform="matrix(1.00, 0.00, -0.00, -1.00, 491.2, 540.7)">r</text><text xml:space="preserve" font-family="GillSans,Gill Sans" font-size="42.0" fill="#000000" transform="matrix(1.00, 0.00, -0.00, -1.00, 507.8, 540.7)">k</text><text xml:space="preserve" font-family="GillSans,Gill Sans" font-size="42.0" fill="#000000" transform="matrix(1.00, 0.00, -0.00, -1.00, 527.9, 540.7)">.</text><text xml:space="preserve" font-family="GillSans,Gill Sans" font-size="42.0" fill="#000000" transform="matrix(1.00, 0.00, -0.00, -1.00, 533.0, 540.7)"> </text><text xml:space="preserve" font-family="GillSans,Gill Sans" font-size="42.0" fill="#000000" transform="matrix(1.00, 0.00, -0.00, -1.00, 544.6, 540.7)"> </text><text xml:space="preserve" font-family="GillSans,Gill Sans" font-size="71.8" fill="#000000" transform="matrix(1.00, 0.00, -0.00, -1.00, 129.0, 433.6)">•</text><text xml:space="preserve" font-family="GillSans,Gill Sans" font-size="42.0" fill="#000000" transform="matrix(1.00, 0.00, -0.00, -1.00, 174.0, 443.7)">G</text><text xml:space="preserve" font-family="GillSans,Gill Sans" font-size="42.0" fill="#000000" transform="matrix(1.00, 0.00, -0.00, -1.00, 205.1, 443.7)">a</text><text xml:space="preserve" font-family="GillSans,Gill Sans" font-size="42.0" fill="#000000" transform="matrix(1.00, 0.00, -0.00, -1.00, 223.0, 443.7)">m</text><text xml:space="preserve" font-family="GillSans,Gill Sans" font-size="42.0" fill="#000000" transform="matrix(1.00, 0.00, -0.00, -1.00, 255.4, 443.7)">e</text><text xml:space="preserve" font-family="GillSans,Gill Sans" font-size="42.0" fill="#000000" transform="matrix(1.00, 0.00, -0.00, -1.00, 275.5, 443.7)">S</text><text xml:space="preserve" font-family="GillSans,Gill Sans" font-size="42.0" fill="#000000" transform="matrix(1.00, 0.00, -0.00, -1.00, 294.8, 443.7)">u</text><text xml:space="preserve" font-family="GillSans,Gill Sans" font-size="42.0" fill="#000000" transform="matrix(1.00, 0.00, -0.00, -1.00, 315.8, 443.7)">b</text><text xml:space="preserve" font-family="GillSans,Gill Sans" font-size="42.0" fill="#000000" transform="matrix(1.00, 0.00, -0.00, -1.00, 336.8, 443.7)">s</text><text xml:space="preserve" font-family="GillSans,Gill Sans" font-size="42.0" fill="#000000" transform="matrix(1.00, 0.00, -0.00, -1.00, 352.9, 443.7)">y</text><text xml:space="preserve" font-family="GillSans,Gill Sans" font-size="42.0" fill="#000000" transform="matrix(1.00, 0.00, -0.00, -1.00, 371.3, 443.7)">s</text><text xml:space="preserve" font-family="GillSans,Gill Sans" font-size="42.0" fill="#000000" transform="matrix(1.00, 0.00, -0.00, -1.00, 387.4, 443.7)">t</text><text xml:space="preserve" font-family="GillSans,Gill Sans" font-size="42.0" fill="#000000" transform="matrix(1.00, 0.00, -0.00, -1.00, 401.4, 443.7)">e</text><text xml:space="preserve" font-family="GillSans,Gill Sans" font-size="42.0" fill="#000000" transform="matrix(1.00, 0.00, -0.00, -1.00, 421.6, 443.7)">m</text><text xml:space="preserve" font-family="GillSans,Gill Sans" font-size="42.0" fill="#000000" transform="matrix(1.00, 0.00, -0.00, -1.00, 453.9, 443.7)">s</text><text xml:space="preserve" font-family="GillSans,Gill Sans" font-size="42.0" fill="#000000" transform="matrix(1.00, 0.00, -0.00, -1.00, 470.1, 443.7)"> </text><text xml:space="preserve" font-family="GillSans,Gill Sans" font-size="42.0" fill="#000000" transform="matrix(1.00, 0.00, -0.00, -1.00, 481.7, 443.7)">a</text><text xml:space="preserve" font-family="GillSans,Gill Sans" font-size="42.0" fill="#000000" transform="matrix(1.00, 0.00, -0.00, -1.00, 499.7, 443.7)">r</text><text xml:space="preserve" font-family="GillSans,Gill Sans" font-size="42.0" fill="#000000" transform="matrix(1.00, 0.00, -0.00, -1.00, 515.5, 443.7)">e</text><text xml:space="preserve" font-family="GillSans,Gill Sans" font-size="42.0" fill="#000000" transform="matrix(1.00, 0.00, -0.00, -1.00, 535.6, 443.7)"> </text><text xml:space="preserve" font-family="GillSans,Gill Sans" font-size="42.0" fill="#000000" transform="matrix(1.00, 0.00, -0.00, -1.00, 547.2, 443.7)">n</text><text xml:space="preserve" font-family="GillSans,Gill Sans" font-size="42.0" fill="#000000" transform="matrix(1.00, 0.00, -0.00, -1.00, 568.2, 443.7)">o</text><text xml:space="preserve" font-family="GillSans,Gill Sans" font-size="42.0" fill="#000000" transform="matrix(1.00, 0.00, -0.00, -1.00, 591.4, 443.7)">t</text><text xml:space="preserve" font-family="GillSans,Gill Sans" font-size="42.0" fill="#000000" transform="matrix(1.00, 0.00, -0.00, -1.00, 605.4, 443.7)"> </text><text xml:space="preserve" font-family="GillSans,Gill Sans" font-size="42.0" fill="#000000" transform="matrix(1.00, 0.00, -0.00, -1.00, 617.0, 443.7)">a</text><text xml:space="preserve" font-family="GillSans,Gill Sans" font-size="42.0" fill="#000000" transform="matrix(1.00, 0.00, -0.00, -1.00, 635.0, 443.7)">l</text><text xml:space="preserve" font-family="GillSans,Gill Sans" font-size="42.0" fill="#000000" transform="matrix(1.00, 0.00, -0.00, -1.00, 644.2, 443.7)">l</text><text xml:space="preserve" font-family="GillSans,Gill Sans" font-size="42.0" fill="#000000" transform="matrix(1.00, 0.00, -0.00, -1.00, 653.4, 443.7)">o</text><text xml:space="preserve" font-family="GillSans,Gill Sans" font-size="42.0" fill="#000000" transform="matrix(1.00, 0.00, -0.00, -1.00, 676.1, 443.7)">w</text><text xml:space="preserve" font-family="GillSans,Gill Sans" font-size="42.0" fill="#000000" transform="matrix(1.00, 0.00, -0.00, -1.00, 705.5, 443.7)">e</text><text xml:space="preserve" font-family="GillSans,Gill Sans" font-size="42.0" fill="#000000" transform="matrix(1.00, 0.00, -0.00, -1.00, 725.6, 443.7)">d</text><text xml:space="preserve" font-family="GillSans,Gill Sans" font-size="42.0" fill="#000000" transform="matrix(1.00, 0.00, -0.00, -1.00, 747.0, 443.7)"> </text><text xml:space="preserve" font-family="GillSans,Gill Sans" font-size="42.0" fill="#000000" transform="matrix(1.00, 0.00, -0.00, -1.00, 758.7, 443.7)">t</text><text xml:space="preserve" font-family="GillSans,Gill Sans" font-size="42.0" fill="#000000" transform="matrix(1.00, 0.00, -0.00, -1.00, 772.7, 443.7)">o</text><text xml:space="preserve" font-family="GillSans,Gill Sans" font-size="42.0" fill="#000000" transform="matrix(1.00, 0.00, -0.00, -1.00, 795.9, 443.7)"> </text><text xml:space="preserve" font-family="GillSans,Gill Sans" font-size="42.0" fill="#000000" transform="matrix(1.00, 0.00, -0.00, -1.00, 174.0, 394.7)">c</text><text xml:space="preserve" font-family="GillSans,Gill Sans" font-size="42.0" fill="#000000" transform="matrix(1.00, 0.00, -0.00, -1.00, 192.4, 394.7)">o</text><text xml:space="preserve" font-family="GillSans,Gill Sans" font-size="42.0" fill="#000000" transform="matrix(1.00, 0.00, -0.00, -1.00, 215.6, 394.7)">m</text><text xml:space="preserve" font-family="GillSans,Gill Sans" font-size="42.0" fill="#000000" transform="matrix(1.00, 0.00, -0.00, -1.00, 247.9, 394.7)">m</text><text xml:space="preserve" font-family="GillSans,Gill Sans" font-size="42.0" fill="#000000" transform="matrix(1.00, 0.00, -0.00, -1.00, 280.3, 394.7)">i</text><text xml:space="preserve" font-family="GillSans,Gill Sans" font-size="42.0" fill="#000000" transform="matrix(1.00, 0.00, -0.00, -1.00, 289.5, 394.7)">t</text><text xml:space="preserve" font-family="GillSans,Gill Sans" font-size="42.0" fill="#000000" transform="matrix(1.00, 0.00, -0.00, -1.00, 303.5, 394.7)"> </text><text xml:space="preserve" font-family="GillSans,Gill Sans" font-size="42.0" fill="#000000" transform="matrix(1.00, 0.00, -0.00, -1.00, 315.2, 394.7)">o</text><text xml:space="preserve" font-family="GillSans,Gill Sans" font-size="42.0" fill="#000000" transform="matrix(1.00, 0.00, -0.00, -1.00, 338.4, 394.7)">r</text><text xml:space="preserve" font-family="GillSans,Gill Sans" font-size="42.0" fill="#000000" transform="matrix(1.00, 0.00, -0.00, -1.00, 355.0, 394.7)"> </text><text xml:space="preserve" font-family="GillSans,Gill Sans" font-size="42.0" fill="#000000" transform="matrix(1.00, 0.00, -0.00, -1.00, 366.6, 394.7)">d</text><text xml:space="preserve" font-family="GillSans,Gill Sans" font-size="42.0" fill="#000000" transform="matrix(1.00, 0.00, -0.00, -1.00, 388.0, 394.7)">i</text><text xml:space="preserve" font-family="GillSans,Gill Sans" font-size="42.0" fill="#000000" transform="matrix(1.00, 0.00, -0.00, -1.00, 397.3, 394.7)">s</text><text xml:space="preserve" font-family="GillSans,Gill Sans" font-size="42.0" fill="#000000" transform="matrix(1.00, 0.00, -0.00, -1.00, 413.4, 394.7)">c</text><text xml:space="preserve" font-family="GillSans,Gill Sans" font-size="42.0" fill="#000000" transform="matrix(1.00, 0.00, -0.00, -1.00, 431.8, 394.7)">a</text><text xml:space="preserve" font-family="GillSans,Gill Sans" font-size="42.0" fill="#000000" transform="matrix(1.00, 0.00, -0.00, -1.00, 449.7, 394.7)">r</text><text xml:space="preserve" font-family="GillSans,Gill Sans" font-size="42.0" fill="#000000" transform="matrix(1.00, 0.00, -0.00, -1.00, 465.7, 394.7)">d</text><text xml:space="preserve" font-family="GillSans,Gill Sans" font-size="42.0" fill="#000000" transform="matrix(1.00, 0.00, -0.00, -1.00, 487.1, 394.7)"> </text><text xml:space="preserve" font-family="GillSans,Gill Sans" font-size="42.0" fill="#000000" transform="matrix(1.00, 0.00, -0.00, -1.00, 498.8, 394.7)">t</text><text xml:space="preserve" font-family="GillSans,Gill Sans" font-size="42.0" fill="#000000" transform="matrix(1.00, 0.00, -0.00, -1.00, 512.8, 394.7)">h</text><text xml:space="preserve" font-family="GillSans,Gill Sans" font-size="42.0" fill="#000000" transform="matrix(1.00, 0.00, -0.00, -1.00, 533.8, 394.7)">i</text><text xml:space="preserve" font-family="GillSans,Gill Sans" font-size="42.0" fill="#000000" transform="matrix(1.00, 0.00, -0.00, -1.00, 543.0, 394.7)">s</text><text xml:space="preserve" font-family="GillSans,Gill Sans" font-size="42.0" fill="#000000" transform="matrix(1.00, 0.00, -0.00, -1.00, 559.1, 394.7)"> </text><text xml:space="preserve" font-family="GillSans,Gill Sans" font-size="42.0" fill="#000000" transform="matrix(1.00, 0.00, -0.00, -1.00, 570.8, 394.7)">t</text><text xml:space="preserve" font-family="GillSans,Gill Sans" font-size="42.0" fill="#000000" transform="matrix(1.00, 0.00, -0.00, -1.00, 584.8, 394.7)">r</text><text xml:space="preserve" font-family="GillSans,Gill Sans" font-size="42.0" fill="#000000" transform="matrix(1.00, 0.00, -0.00, -1.00, 601.4, 394.7)">a</text><text xml:space="preserve" font-family="GillSans,Gill Sans" font-size="42.0" fill="#000000" transform="matrix(1.00, 0.00, -0.00, -1.00, 619.3, 394.7)">n</text><text xml:space="preserve" font-family="GillSans,Gill Sans" font-size="42.0" fill="#000000" transform="matrix(1.00, 0.00, -0.00, -1.00, 640.3, 394.7)">s</text><text xml:space="preserve" font-family="GillSans,Gill Sans" font-size="42.0" fill="#000000" transform="matrix(1.00, 0.00, -0.00, -1.00, 656.5, 394.7)">a</text><text xml:space="preserve" font-family="GillSans,Gill Sans" font-size="42.0" fill="#000000" transform="matrix(1.00, 0.00, -0.00, -1.00, 674.4, 394.7)">c</text><text xml:space="preserve" font-family="GillSans,Gill Sans" font-size="42.0" fill="#000000" transform="matrix(1.00, 0.00, -0.00, -1.00, 692.8, 394.7)">t</text><text xml:space="preserve" font-family="GillSans,Gill Sans" font-size="42.0" fill="#000000" transform="matrix(1.00, 0.00, -0.00, -1.00, 706.8, 394.7)">i</text><text xml:space="preserve" font-family="GillSans,Gill Sans" font-size="42.0" fill="#000000" transform="matrix(1.00, 0.00, -0.00, -1.00, 716.0, 394.7)">o</text><text xml:space="preserve" font-family="GillSans,Gill Sans" font-size="42.0" fill="#000000" transform="matrix(1.00, 0.00, -0.00, -1.00, 739.2, 394.7)">n</text><text xml:space="preserve" font-family="GillSans,Gill Sans" font-size="42.0" fill="#000000" transform="matrix(1.00, 0.00, -0.00, -1.00, 760.2, 394.7)"> </text><text xml:space="preserve" font-family="GillSans,Gill Sans" font-size="42.0" fill="#000000" transform="matrix(1.00, 0.00, -0.00, -1.00, 771.8, 394.7)">d</text><text xml:space="preserve" font-family="GillSans,Gill Sans" font-size="42.0" fill="#000000" transform="matrix(1.00, 0.00, -0.00, -1.00, 793.2, 394.7)">i</text><text xml:space="preserve" font-family="GillSans,Gill Sans" font-size="42.0" fill="#000000" transform="matrix(1.00, 0.00, -0.00, -1.00, 802.4, 394.7)">r</text><text xml:space="preserve" font-family="GillSans,Gill Sans" font-size="42.0" fill="#000000" transform="matrix(1.00, 0.00, -0.00, -1.00, 818.2, 394.7)">e</text><text xml:space="preserve" font-family="GillSans,Gill Sans" font-size="42.0" fill="#000000" transform="matrix(1.00, 0.00, -0.00, -1.00, 838.4, 394.7)">c</text><text xml:space="preserve" font-family="GillSans,Gill Sans" font-size="42.0" fill="#000000" transform="matrix(1.00, 0.00, -0.00, -1.00, 856.8, 394.7)">t</text><text xml:space="preserve" font-family="GillSans,Gill Sans" font-size="42.0" fill="#000000" transform="matrix(1.00, 0.00, -0.00, -1.00, 870.7, 394.7)">l</text><text xml:space="preserve" font-family="GillSans,Gill Sans" font-size="42.0" fill="#000000" transform="matrix(1.00, 0.00, -0.00, -1.00, 879.5, 394.7)">y</text><text xml:space="preserve" font-family="GillSans,Gill Sans" font-size="42.0" fill="#000000" transform="matrix(1.00, 0.00, -0.00, -1.00, 894.6, 394.7)">,</text><text xml:space="preserve" font-family="GillSans,Gill Sans" font-size="42.0" fill="#000000" transform="matrix(1.00, 0.00, -0.00, -1.00, 899.6, 394.7)"> </text><text xml:space="preserve" font-family="GillSans,Gill Sans" font-size="42.0" fill="#000000" transform="matrix(1.00, 0.00, -0.00, -1.00, 174.0, 344.5)">u</text><text xml:space="preserve" font-family="GillSans,Gill Sans" font-size="42.0" fill="#000000" transform="matrix(1.00, 0.00, -0.00, -1.00, 195.0, 344.5)">n</text><text xml:space="preserve" font-family="GillSans,Gill Sans" font-size="42.0" fill="#000000" transform="matrix(1.00, 0.00, -0.00, -1.00, 216.0, 344.5)">l</text><text xml:space="preserve" font-family="GillSans,Gill Sans" font-size="42.0" fill="#000000" transform="matrix(1.00, 0.00, -0.00, -1.00, 225.2, 344.5)">e</text><text xml:space="preserve" font-family="GillSans,Gill Sans" font-size="42.0" fill="#000000" transform="matrix(1.00, 0.00, -0.00, -1.00, 245.3, 344.5)">s</text><text xml:space="preserve" font-family="GillSans,Gill Sans" font-size="42.0" fill="#000000" transform="matrix(1.00, 0.00, -0.00, -1.00, 261.5, 344.5)">s</text><text xml:space="preserve" font-family="GillSans,Gill Sans" font-size="42.0" fill="#000000" transform="matrix(1.00, 0.00, -0.00, -1.00, 277.6, 344.5)"> </text><text xml:space="preserve" font-family="GillSans-SemiBold,Gill Sans" font-weight="bold" font-size="42.0" fill="#000000" transform="matrix(1.00, 0.00, -0.00, -1.00, 289.3, 344.5)">e</text><text xml:space="preserve" font-family="GillSans-SemiBold,Gill Sans" font-weight="bold" font-size="42.0" fill="#000000" transform="matrix(1.00, 0.00, -0.00, -1.00, 311.0, 344.5)">x</text><text xml:space="preserve" font-family="GillSans-SemiBold,Gill Sans" font-weight="bold" font-size="42.0" fill="#000000" transform="matrix(1.00, 0.00, -0.00, -1.00, 333.2, 344.5)">p</text><text xml:space="preserve" font-family="GillSans-SemiBold,Gill Sans" font-weight="bold" font-size="42.0" fill="#000000" transform="matrix(1.00, 0.00, -0.00, -1.00, 356.2, 344.5)">l</text><text xml:space="preserve" font-family="GillSans-SemiBold,Gill Sans" font-weight="bold" font-size="42.0" fill="#000000" transform="matrix(1.00, 0.00, -0.00, -1.00, 366.6, 344.5)">i</text><text xml:space="preserve" font-family="GillSans-SemiBold,Gill Sans" font-weight="bold" font-size="42.0" fill="#000000" transform="matrix(1.00, 0.00, -0.00, -1.00, 377.0, 344.5)">c</text><text xml:space="preserve" font-family="GillSans-SemiBold,Gill Sans" font-weight="bold" font-size="42.0" fill="#000000" transform="matrix(1.00, 0.00, -0.00, -1.00, 396.4, 344.5)">i</text><text xml:space="preserve" font-family="GillSans-SemiBold,Gill Sans" font-weight="bold" font-size="42.0" fill="#000000" transform="matrix(1.00, 0.00, -0.00, -1.00, 406.8, 344.5)">t</text><text xml:space="preserve" font-family="GillSans-SemiBold,Gill Sans" font-weight="bold" font-size="42.0" fill="#000000" transform="matrix(1.00, 0.00, -0.00, -1.00, 422.3, 344.5)">l</text><text xml:space="preserve" font-family="GillSans-SemiBold,Gill Sans" font-weight="bold" font-size="42.0" fill="#000000" transform="matrix(1.00, 0.00, -0.00, -1.00, 432.7, 344.5)">y</text><text xml:space="preserve" font-family="GillSans,Gill Sans" font-size="42.0" fill="#000000" transform="matrix(1.00, 0.00, -0.00, -1.00, 452.8, 344.5)"> </text><text xml:space="preserve" font-family="GillSans,Gill Sans" font-size="42.0" fill="#000000" transform="matrix(1.00, 0.00, -0.00, -1.00, 464.5, 344.5)">a</text><text xml:space="preserve" font-family="GillSans,Gill Sans" font-size="42.0" fill="#000000" transform="matrix(1.00, 0.00, -0.00, -1.00, 482.4, 344.5)">s</text><text xml:space="preserve" font-family="GillSans,Gill Sans" font-size="42.0" fill="#000000" transform="matrix(1.00, 0.00, -0.00, -1.00, 498.6, 344.5)">k</text><text xml:space="preserve" font-family="GillSans,Gill Sans" font-size="42.0" fill="#000000" transform="matrix(1.00, 0.00, -0.00, -1.00, 517.4, 344.5)">e</text><text xml:space="preserve" font-family="GillSans,Gill Sans" font-size="42.0" fill="#000000" transform="matrix(1.00, 0.00, -0.00, -1.00, 537.5, 344.5)">d</text><text xml:space="preserve" font-family="GillSans,Gill Sans" font-size="42.0" fill="#000000" transform="matrix(1.00, 0.00, -0.00, -1.00, 558.9, 344.5)"> </text><text xml:space="preserve" font-family="GillSans,Gill Sans" font-size="42.0" fill="#000000" transform="matrix(1.00, 0.00, -0.00, -1.00, 570.6, 344.5)">t</text><text xml:space="preserve" font-family="GillSans,Gill Sans" font-size="42.0" fill="#000000" transform="matrix(1.00, 0.00, -0.00, -1.00, 584.6, 344.5)">o</text><text xml:space="preserve" font-family="GillSans,Gill Sans" font-size="42.0" fill="#000000" transform="matrix(1.00, 0.00, -0.00, -1.00, 606.5, 344.5)">.</text><text xml:space="preserve" font-family="GillSans,Gill Sans" font-size="42.0" fill="#000000" transform="matrix(1.00, 0.00, -0.00, -1.00, 611.5, 344.5)"> </text><text xml:space="preserve" font-family="GillSans,Gill Sans" font-size="42.0" fill="#000000" transform="matrix(1.00, 0.00, -0.00, -1.00, 623.2, 344.5)"> </text><text xml:space="preserve" font-family="GillSans,Gill Sans" font-size="71.8" fill="#000000" transform="matrix(1.00, 0.00, -0.00, -1.00, 164.0, 236.6)">•</text><text xml:space="preserve" font-family="GillSans,Gill Sans" font-size="42.0" fill="#000000" transform="matrix(1.00, 0.00, -0.00, -1.00, 209.0, 246.7)">(</text><text xml:space="preserve" font-family="GillSans,Gill Sans" font-size="42.0" fill="#000000" transform="matrix(1.00, 0.00, -0.00, -1.00, 222.6, 246.7)">I</text><text xml:space="preserve" font-family="GillSans,Gill Sans" font-size="42.0" fill="#000000" transform="matrix(1.00, 0.00, -0.00, -1.00, 233.1, 246.7)">f</text><text xml:space="preserve" font-family="GillSans,Gill Sans" font-size="42.0" fill="#000000" transform="matrix(1.00, 0.00, -0.00, -1.00, 243.6, 246.7)"> </text><text xml:space="preserve" font-family="GillSans,Gill Sans" font-size="42.0" fill="#000000" transform="matrix(1.00, 0.00, -0.00, -1.00, 255.2, 246.7)">a</text><text xml:space="preserve" font-family="GillSans,Gill Sans" font-size="42.0" fill="#000000" transform="matrix(1.00, 0.00, -0.00, -1.00, 273.2, 246.7)"> </text><text xml:space="preserve" font-family="GillSans,Gill Sans" font-size="42.0" fill="#000000" transform="matrix(1.00, 0.00, -0.00, -1.00, 284.8, 246.7)">G</text><text xml:space="preserve" font-family="GillSans,Gill Sans" font-size="42.0" fill="#000000" transform="matrix(1.00, 0.00, -0.00, -1.00, 315.9, 246.7)">a</text><text xml:space="preserve" font-family="GillSans,Gill Sans" font-size="42.0" fill="#000000" transform="matrix(1.00, 0.00, -0.00, -1.00, 333.8, 246.7)">m</text><text xml:space="preserve" font-family="GillSans,Gill Sans" font-size="42.0" fill="#000000" transform="matrix(1.00, 0.00, -0.00, -1.00, 366.2, 246.7)">e</text><text xml:space="preserve" font-family="GillSans,Gill Sans" font-size="42.0" fill="#000000" transform="matrix(1.00, 0.00, -0.00, -1.00, 386.3, 246.7)">S</text><text xml:space="preserve" font-family="GillSans,Gill Sans" font-size="42.0" fill="#000000" transform="matrix(1.00, 0.00, -0.00, -1.00, 405.6, 246.7)">u</text><text xml:space="preserve" font-family="GillSans,Gill Sans" font-size="42.0" fill="#000000" transform="matrix(1.00, 0.00, -0.00, -1.00, 426.6, 246.7)">b</text><text xml:space="preserve" font-family="GillSans,Gill Sans" font-size="42.0" fill="#000000" transform="matrix(1.00, 0.00, -0.00, -1.00, 447.6, 246.7)">s</text><text xml:space="preserve" font-family="GillSans,Gill Sans" font-size="42.0" fill="#000000" transform="matrix(1.00, 0.00, -0.00, -1.00, 463.7, 246.7)">y</text><text xml:space="preserve" font-family="GillSans,Gill Sans" font-size="42.0" fill="#000000" transform="matrix(1.00, 0.00, -0.00, -1.00, 482.1, 246.7)">s</text><text xml:space="preserve" font-family="GillSans,Gill Sans" font-size="42.0" fill="#000000" transform="matrix(1.00, 0.00, -0.00, -1.00, 498.3, 246.7)">t</text><text xml:space="preserve" font-family="GillSans,Gill Sans" font-size="42.0" fill="#000000" transform="matrix(1.00, 0.00, -0.00, -1.00, 512.3, 246.7)">e</text><text xml:space="preserve" font-family="GillSans,Gill Sans" font-size="42.0" fill="#000000" transform="matrix(1.00, 0.00, -0.00, -1.00, 532.4, 246.7)">m</text><text xml:space="preserve" font-family="GillSans,Gill Sans" font-size="42.0" fill="#000000" transform="matrix(1.00, 0.00, -0.00, -1.00, 564.8, 246.7)"> </text><text xml:space="preserve" font-family="GillSans,Gill Sans" font-size="42.0" fill="#000000" transform="matrix(1.00, 0.00, -0.00, -1.00, 576.4, 246.7)">n</text><text xml:space="preserve" font-family="GillSans,Gill Sans" font-size="42.0" fill="#000000" transform="matrix(1.00, 0.00, -0.00, -1.00, 597.4, 246.7)">e</text><text xml:space="preserve" font-family="GillSans,Gill Sans" font-size="42.0" fill="#000000" transform="matrix(1.00, 0.00, -0.00, -1.00, 617.5, 246.7)">e</text><text xml:space="preserve" font-family="GillSans,Gill Sans" font-size="42.0" fill="#000000" transform="matrix(1.00, 0.00, -0.00, -1.00, 637.7, 246.7)">d</text><text xml:space="preserve" font-family="GillSans,Gill Sans" font-size="42.0" fill="#000000" transform="matrix(1.00, 0.00, -0.00, -1.00, 659.1, 246.7)">s</text><text xml:space="preserve" font-family="GillSans,Gill Sans" font-size="42.0" fill="#000000" transform="matrix(1.00, 0.00, -0.00, -1.00, 675.2, 246.7)"> </text><text xml:space="preserve" font-family="GillSans,Gill Sans" font-size="42.0" fill="#000000" transform="matrix(1.00, 0.00, -0.00, -1.00, 686.9, 246.7)">i</text><text xml:space="preserve" font-family="GillSans,Gill Sans" font-size="42.0" fill="#000000" transform="matrix(1.00, 0.00, -0.00, -1.00, 696.1, 246.7)">t</text><text xml:space="preserve" font-family="GillSans,Gill Sans" font-size="42.0" fill="#000000" transform="matrix(1.00, 0.00, -0.00, -1.00, 710.1, 246.7)">s</text><text xml:space="preserve" font-family="GillSans,Gill Sans" font-size="42.0" fill="#000000" transform="matrix(1.00, 0.00, -0.00, -1.00, 726.2, 246.7)"> </text><text xml:space="preserve" font-family="GillSans,Gill Sans" font-size="42.0" fill="#000000" transform="matrix(1.00, 0.00, -0.00, -1.00, 737.9, 246.7)">o</text><text xml:space="preserve" font-family="GillSans,Gill Sans" font-size="42.0" fill="#000000" transform="matrix(1.00, 0.00, -0.00, -1.00, 760.6, 246.7)">w</text><text xml:space="preserve" font-family="GillSans,Gill Sans" font-size="42.0" fill="#000000" transform="matrix(1.00, 0.00, -0.00, -1.00, 790.9, 246.7)">n</text><text xml:space="preserve" font-family="GillSans,Gill Sans" font-size="42.0" fill="#000000" transform="matrix(1.00, 0.00, -0.00, -1.00, 811.9, 246.7)"> </text><text xml:space="preserve" font-family="GillSans,Gill Sans" font-size="42.0" fill="#000000" transform="matrix(1.00, 0.00, -0.00, -1.00, 209.0, 197.7)">t</text><text xml:space="preserve" font-family="GillSans,Gill Sans" font-size="42.0" fill="#000000" transform="matrix(1.00, 0.00, -0.00, -1.00, 223.0, 197.7)">r</text><text xml:space="preserve" font-family="GillSans,Gill Sans" font-size="42.0" fill="#000000" transform="matrix(1.00, 0.00, -0.00, -1.00, 239.6, 197.7)">a</text><text xml:space="preserve" font-family="GillSans,Gill Sans" font-size="42.0" fill="#000000" transform="matrix(1.00, 0.00, -0.00, -1.00, 257.5, 197.7)">n</text><text xml:space="preserve" font-family="GillSans,Gill Sans" font-size="42.0" fill="#000000" transform="matrix(1.00, 0.00, -0.00, -1.00, 278.5, 197.7)">s</text><text xml:space="preserve" font-family="GillSans,Gill Sans" font-size="42.0" fill="#000000" transform="matrix(1.00, 0.00, -0.00, -1.00, 294.7, 197.7)">a</text><text xml:space="preserve" font-family="GillSans,Gill Sans" font-size="42.0" fill="#000000" transform="matrix(1.00, 0.00, -0.00, -1.00, 312.6, 197.7)">c</text><text xml:space="preserve" font-family="GillSans,Gill Sans" font-size="42.0" fill="#000000" transform="matrix(1.00, 0.00, -0.00, -1.00, 331.0, 197.7)">t</text><text xml:space="preserve" font-family="GillSans,Gill Sans" font-size="42.0" fill="#000000" transform="matrix(1.00, 0.00, -0.00, -1.00, 345.0, 197.7)">i</text><text xml:space="preserve" font-family="GillSans,Gill Sans" font-size="42.0" fill="#000000" transform="matrix(1.00, 0.00, -0.00, -1.00, 354.2, 197.7)">o</text><text xml:space="preserve" font-family="GillSans,Gill Sans" font-size="42.0" fill="#000000" transform="matrix(1.00, 0.00, -0.00, -1.00, 377.4, 197.7)">n</text><text xml:space="preserve" font-family="GillSans,Gill Sans" font-size="42.0" fill="#000000" transform="matrix(1.00, 0.00, -0.00, -1.00, 398.4, 197.7)"> </text><text xml:space="preserve" font-family="GillSans,Gill Sans" font-size="42.0" fill="#000000" transform="matrix(1.00, 0.00, -0.00, -1.00, 410.0, 197.7)">s</text><text xml:space="preserve" font-family="GillSans,Gill Sans" font-size="42.0" fill="#000000" transform="matrix(1.00, 0.00, -0.00, -1.00, 426.2, 197.7)">c</text><text xml:space="preserve" font-family="GillSans,Gill Sans" font-size="42.0" fill="#000000" transform="matrix(1.00, 0.00, -0.00, -1.00, 444.6, 197.7)">o</text><text xml:space="preserve" font-family="GillSans,Gill Sans" font-size="42.0" fill="#000000" transform="matrix(1.00, 0.00, -0.00, -1.00, 467.7, 197.7)">p</text><text xml:space="preserve" font-family="GillSans,Gill Sans" font-size="42.0" fill="#000000" transform="matrix(1.00, 0.00, -0.00, -1.00, 488.7, 197.7)">e</text><text xml:space="preserve" font-family="GillSans,Gill Sans" font-size="42.0" fill="#000000" transform="matrix(1.00, 0.00, -0.00, -1.00, 509.7, 197.7)">,</text><text xml:space="preserve" font-family="GillSans,Gill Sans" font-size="42.0" fill="#000000" transform="matrix(1.00, 0.00, -0.00, -1.00, 514.7, 197.7)"> </text><text xml:space="preserve" font-family="GillSans,Gill Sans" font-size="42.0" fill="#000000" transform="matrix(1.00, 0.00, -0.00, -1.00, 526.4, 197.7)">i</text><text xml:space="preserve" font-family="GillSans,Gill Sans" font-size="42.0" fill="#000000" transform="matrix(1.00, 0.00, -0.00, -1.00, 535.6, 197.7)">t</text><text xml:space="preserve" font-family="GillSans,Gill Sans" font-size="42.0" fill="#000000" transform="matrix(1.00, 0.00, -0.00, -1.00, 549.6, 197.7)"> </text><text xml:space="preserve" font-family="GillSans,Gill Sans" font-size="42.0" fill="#000000" transform="matrix(1.00, 0.00, -0.00, -1.00, 561.2, 197.7)">m</text><text xml:space="preserve" font-family="GillSans,Gill Sans" font-size="42.0" fill="#000000" transform="matrix(1.00, 0.00, -0.00, -1.00, 593.2, 197.7)">u</text><text xml:space="preserve" font-family="GillSans,Gill Sans" font-size="42.0" fill="#000000" transform="matrix(1.00, 0.00, -0.00, -1.00, 614.2, 197.7)">s</text><text xml:space="preserve" font-family="GillSans,Gill Sans" font-size="42.0" fill="#000000" transform="matrix(1.00, 0.00, -0.00, -1.00, 630.4, 197.7)">t</text><text xml:space="preserve" font-family="GillSans,Gill Sans" font-size="42.0" fill="#000000" transform="matrix(1.00, 0.00, -0.00, -1.00, 644.3, 197.7)"> </text><text xml:space="preserve" font-family="GillSans,Gill Sans" font-size="42.0" fill="#000000" transform="matrix(1.00, 0.00, -0.00, -1.00, 656.0, 197.7)">s</text><text xml:space="preserve" font-family="GillSans,Gill Sans" font-size="42.0" fill="#000000" transform="matrix(1.00, 0.00, -0.00, -1.00, 672.2, 197.7)">t</text><text xml:space="preserve" font-family="GillSans,Gill Sans" font-size="42.0" fill="#000000" transform="matrix(1.00, 0.00, -0.00, -1.00, 686.1, 197.7)">a</text><text xml:space="preserve" font-family="GillSans,Gill Sans" font-size="42.0" fill="#000000" transform="matrix(1.00, 0.00, -0.00, -1.00, 704.1, 197.7)">r</text><text xml:space="preserve" font-family="GillSans,Gill Sans" font-size="42.0" fill="#000000" transform="matrix(1.00, 0.00, -0.00, -1.00, 721.5, 197.7)">t</text><text xml:space="preserve" font-family="GillSans,Gill Sans" font-size="42.0" fill="#000000" transform="matrix(1.00, 0.00, -0.00, -1.00, 735.5, 197.7)"> </text><text xml:space="preserve" font-family="GillSans,Gill Sans" font-size="42.0" fill="#000000" transform="matrix(1.00, 0.00, -0.00, -1.00, 747.2, 197.7)">a</text><text xml:space="preserve" font-family="GillSans,Gill Sans" font-size="42.0" fill="#000000" transform="matrix(1.00, 0.00, -0.00, -1.00, 765.1, 197.7)">n</text><text xml:space="preserve" font-family="GillSans,Gill Sans" font-size="42.0" fill="#000000" transform="matrix(1.00, 0.00, -0.00, -1.00, 786.1, 197.7)">d</text><text xml:space="preserve" font-family="GillSans,Gill Sans" font-size="42.0" fill="#000000" transform="matrix(1.00, 0.00, -0.00, -1.00, 807.5, 197.7)"> </text><text xml:space="preserve" font-family="GillSans,Gill Sans" font-size="42.0" fill="#000000" transform="matrix(1.00, 0.00, -0.00, -1.00, 209.0, 148.7)">m</text><text xml:space="preserve" font-family="GillSans,Gill Sans" font-size="42.0" fill="#000000" transform="matrix(1.00, 0.00, -0.00, -1.00, 241.4, 148.7)">a</text><text xml:space="preserve" font-family="GillSans,Gill Sans" font-size="42.0" fill="#000000" transform="matrix(1.00, 0.00, -0.00, -1.00, 259.3, 148.7)">n</text><text xml:space="preserve" font-family="GillSans,Gill Sans" font-size="42.0" fill="#000000" transform="matrix(1.00, 0.00, -0.00, -1.00, 280.3, 148.7)">a</text><text xml:space="preserve" font-family="GillSans,Gill Sans" font-size="42.0" fill="#000000" transform="matrix(1.00, 0.00, -0.00, -1.00, 298.2, 148.7)">g</text><text xml:space="preserve" font-family="GillSans,Gill Sans" font-size="42.0" fill="#000000" transform="matrix(1.00, 0.00, -0.00, -1.00, 316.1, 148.7)">e</text><text xml:space="preserve" font-family="GillSans,Gill Sans" font-size="42.0" fill="#000000" transform="matrix(1.00, 0.00, -0.00, -1.00, 336.2, 148.7)"> </text><text xml:space="preserve" font-family="GillSans,Gill Sans" font-size="42.0" fill="#000000" transform="matrix(1.00, 0.00, -0.00, -1.00, 347.9, 148.7)">o</text><text xml:space="preserve" font-family="GillSans,Gill Sans" font-size="42.0" fill="#000000" transform="matrix(1.00, 0.00, -0.00, -1.00, 371.1, 148.7)">n</text><text xml:space="preserve" font-family="GillSans,Gill Sans" font-size="42.0" fill="#000000" transform="matrix(1.00, 0.00, -0.00, -1.00, 392.1, 148.7)">e</text><text xml:space="preserve" font-family="GillSans,Gill Sans" font-size="42.0" fill="#000000" transform="matrix(1.00, 0.00, -0.00, -1.00, 412.2, 148.7)"> </text><text xml:space="preserve" font-family="GillSans,Gill Sans" font-size="42.0" fill="#000000" transform="matrix(1.00, 0.00, -0.00, -1.00, 423.9, 148.7)">i</text><text xml:space="preserve" font-family="GillSans,Gill Sans" font-size="42.0" fill="#000000" transform="matrix(1.00, 0.00, -0.00, -1.00, 433.1, 148.7)">t</text><text xml:space="preserve" font-family="GillSans,Gill Sans" font-size="42.0" fill="#000000" transform="matrix(1.00, 0.00, -0.00, -1.00, 447.1, 148.7)">s</text><text xml:space="preserve" font-family="GillSans,Gill Sans" font-size="42.0" fill="#000000" transform="matrix(1.00, 0.00, -0.00, -1.00, 463.2, 148.7)">e</text><text xml:space="preserve" font-family="GillSans,Gill Sans" font-size="42.0" fill="#000000" transform="matrix(1.00, 0.00, -0.00, -1.00, 483.3, 148.7)">l</text><text xml:space="preserve" font-family="GillSans,Gill Sans" font-size="42.0" fill="#000000" transform="matrix(1.00, 0.00, -0.00, -1.00, 492.5, 148.7)">f</text><text xml:space="preserve" font-family="GillSans,Gill Sans" font-size="42.0" fill="#000000" transform="matrix(1.00, 0.00, -0.00, -1.00, 503.0, 148.7)">.</text><text xml:space="preserve" font-family="GillSans,Gill Sans" font-size="42.0" fill="#000000" transform="matrix(1.00, 0.00, -0.00, -1.00, 512.3, 148.7)">)</text></g></svg>