<?xml version="1.0" encoding="UTF-8" standalone="no"?><svg xmlns="http://www.w3.org/2000/svg" xmlns:xlink="http://www.w3.org/1999/xlink" clip-rule="evenodd" stroke-miterlimit="10" viewBox="0 0 1024 768"><desc>SVG generated by Keynote</desc><defs></defs><g transform="matrix(1.00, 0.00, -0.00, -1.00, 0.0, 768.0)"><path d="M 0.0 768.0 L 1024.0 768.0 L 1024.0 0.0 L 0.0 0.0 Z M 0.0 768.0 " fill="#FEFFFF"></path><text xml:space="preserve" font-family="GillSans,Gill Sans" font-size="71.8" fill="#000000" transform="matrix(1.00, 0.00, -0.00, -1.00, 129.0, 529.6)">•</text><text xml:space="preserve" font-family="GillSans,Gill Sans" font-size="42.0" fill="#000000" transform="matrix(1.00, 0.00, -0.00, -1.00, 174.0, 539.7)">F</text><text xml:space="preserve" font-family="GillSans,Gill Sans" font-size="42.0" fill="#000000" transform="matrix(1.00, 0.00, -0.00, -1.00, 193.7, 539.7)">u</text><text xml:space="preserve" font-family="GillSans,Gill Sans" font-size="42.0" fill="#000000" transform="matrix(1.00, 0.00, -0.00, -1.00, 214.7, 539.7)">n</text><text xml:space="preserve" font-family="GillSans,Gill Sans" font-size="42.0" fill="#000000" transform="matrix(1.00, 0.00, -0.00, -1.00, 235.7, 539.7)">c</text><text xml:space="preserve" font-family="GillSans,Gill Sans" font-size="42.0" fill="#000000" transform="matrix(1.00, 0.00, -0.00, -1.00, 254.1, 539.7)">t</text><text xml:space="preserve" font-family="GillSans,Gill Sans" font-size="42.0" fill="#000000" transform="matrix(1.00, 0.00, -0.00, -1.00, 268.1, 539.7)">i</text><text xml:space="preserve" font-family="GillSans,Gill Sans" font-size="42.0" fill="#000000" transform="matrix(1.00, 0.00, -0.00, -1.00, 277.3, 539.7)">o</text><text xml:space="preserve" font-family="GillSans,Gill Sans" font-size="42.0" fill="#000000" transform="matrix(1.00, 0.00, -0.00, -1.00, 300.5, 539.7)">n</text><text xml:space="preserve" font-family="GillSans,Gill Sans" font-size="42.0" fill="#000000" transform="matrix(1.00, 0.00, -0.00, -1.00, 321.5, 539.7)">s</text><text xml:space="preserve" font-family="GillSans,Gill Sans" font-size="42.0" fill="#000000" transform="matrix(1.00, 0.00, -0.00, -1.00, 337.6, 539.7)"> </text><text xml:space="preserve" font-family="GillSans,Gill Sans" font-size="42.0" fill="#000000" transform="matrix(1.00, 0.00, -0.00, -1.00, 349.3, 539.7)">s</text><text xml:space="preserve" font-family="GillSans,Gill Sans" font-size="42.0" fill="#000000" transform="matrix(1.00, 0.00, -0.00, -1.00, 365.4, 539.7)">h</text><text xml:space="preserve" font-family="GillSans,Gill Sans" font-size="42.0" fill="#000000" transform="matrix(1.00, 0.00, -0.00, -1.00, 386.4, 539.7)">o</text><text xml:space="preserve" font-family="GillSans,Gill Sans" font-size="42.0" fill="#000000" transform="matrix(1.00, 0.00, -0.00, -1.00, 409.6, 539.7)">u</text><text xml:space="preserve" font-family="GillSans,Gill Sans" font-size="42.0" fill="#000000" transform="matrix(1.00, 0.00, -0.00, -1.00, 430.6, 539.7)">l</text><text xml:space="preserve" font-family="GillSans,Gill Sans" font-size="42.0" fill="#000000" transform="matrix(1.00, 0.00, -0.00, -1.00, 439.8, 539.7)">d</text><text xml:space="preserve" font-family="GillSans,Gill Sans" font-size="42.0" fill="#000000" transform="matrix(1.00, 0.00, -0.00, -1.00, 461.2, 539.7)"> </text><text xml:space="preserve" font-family="GillSans,Gill Sans" font-size="42.0" fill="#000000" transform="matrix(1.00, 0.00, -0.00, -1.00, 472.9, 539.7)">n</text><text xml:space="preserve" font-family="GillSans,Gill Sans" font-size="42.0" fill="#000000" transform="matrix(1.00, 0.00, -0.00, -1.00, 493.9, 539.7)">e</text><text xml:space="preserve" font-family="GillSans,Gill Sans" font-size="42.0" fill="#000000" transform="matrix(1.00, 0.00, -0.00, -1.00, 513.4, 539.7)">v</text><text xml:space="preserve" font-family="GillSans,Gill Sans" font-size="42.0" fill="#000000" transform="matrix(1.00, 0.00, -0.00, -1.00, 530.9, 539.7)">e</text><text xml:space="preserve" font-family="GillSans,Gill Sans" font-size="42.0" fill="#000000" transform="matrix(1.00, 0.00, -0.00, -1.00, 551.0, 539.7)">r</text><text xml:space="preserve" font-family="GillSans,Gill Sans" font-size="42.0" fill="#000000" transform="matrix(1.00, 0.00, -0.00, -1.00, 567.7, 539.7)"> </text><text xml:space="preserve" font-family="GillSans,Gill Sans" font-size="42.0" fill="#000000" transform="matrix(1.00, 0.00, -0.00, -1.00, 579.3, 539.7)">b</text><text xml:space="preserve" font-family="GillSans,Gill Sans" font-size="42.0" fill="#000000" transform="matrix(1.00, 0.00, -0.00, -1.00, 600.3, 539.7)">e</text><text xml:space="preserve" font-family="GillSans,Gill Sans" font-size="42.0" fill="#000000" transform="matrix(1.00, 0.00, -0.00, -1.00, 620.5, 539.7)"> </text><text xml:space="preserve" font-family="GillSans,Gill Sans" font-size="42.0" fill="#000000" transform="matrix(1.00, 0.00, -0.00, -1.00, 632.1, 539.7)">m</text><text xml:space="preserve" font-family="GillSans,Gill Sans" font-size="42.0" fill="#000000" transform="matrix(1.00, 0.00, -0.00, -1.00, 664.5, 539.7)">o</text><text xml:space="preserve" font-family="GillSans,Gill Sans" font-size="42.0" fill="#000000" transform="matrix(1.00, 0.00, -0.00, -1.00, 687.7, 539.7)">r</text><text xml:space="preserve" font-family="GillSans,Gill Sans" font-size="42.0" fill="#000000" transform="matrix(1.00, 0.00, -0.00, -1.00, 703.5, 539.7)">e</text><text xml:space="preserve" font-family="GillSans,Gill Sans" font-size="42.0" fill="#000000" transform="matrix(1.00, 0.00, -0.00, -1.00, 723.6, 539.7)"> </text><text xml:space="preserve" font-family="GillSans,Gill Sans" font-size="42.0" fill="#000000" transform="matrix(1.00, 0.00, -0.00, -1.00, 735.2, 539.7)">t</text><text xml:space="preserve" font-family="GillSans,Gill Sans" font-size="42.0" fill="#000000" transform="matrix(1.00, 0.00, -0.00, -1.00, 749.2, 539.7)">h</text><text xml:space="preserve" font-family="GillSans,Gill Sans" font-size="42.0" fill="#000000" transform="matrix(1.00, 0.00, -0.00, -1.00, 770.2, 539.7)">a</text><text xml:space="preserve" font-family="GillSans,Gill Sans" font-size="42.0" fill="#000000" transform="matrix(1.00, 0.00, -0.00, -1.00, 788.1, 539.7)">n</text><text xml:space="preserve" font-family="GillSans,Gill Sans" font-size="42.0" fill="#000000" transform="matrix(1.00, 0.00, -0.00, -1.00, 809.1, 539.7)"> </text><text xml:space="preserve" font-family="GillSans,Gill Sans" font-size="42.0" fill="#000000" transform="matrix(1.00, 0.00, -0.00, -1.00, 820.8, 539.7)">a</text><text xml:space="preserve" font-family="GillSans,Gill Sans" font-size="42.0" fill="#000000" transform="matrix(1.00, 0.00, -0.00, -1.00, 838.7, 539.7)"> </text><text xml:space="preserve" font-family="GillSans,Gill Sans" font-size="42.0" fill="#000000" transform="matrix(1.00, 0.00, -0.00, -1.00, 174.0, 490.7)">s</text><text xml:space="preserve" font-family="GillSans,Gill Sans" font-size="42.0" fill="#000000" transform="matrix(1.00, 0.00, -0.00, -1.00, 190.2, 490.7)">c</text><text xml:space="preserve" font-family="GillSans,Gill Sans" font-size="42.0" fill="#000000" transform="matrix(1.00, 0.00, -0.00, -1.00, 208.5, 490.7)">r</text><text xml:space="preserve" font-family="GillSans,Gill Sans" font-size="42.0" fill="#000000" transform="matrix(1.00, 0.00, -0.00, -1.00, 224.3, 490.7)">e</text><text xml:space="preserve" font-family="GillSans,Gill Sans" font-size="42.0" fill="#000000" transform="matrix(1.00, 0.00, -0.00, -1.00, 244.5, 490.7)">e</text><text xml:space="preserve" font-family="GillSans,Gill Sans" font-size="42.0" fill="#000000" transform="matrix(1.00, 0.00, -0.00, -1.00, 264.6, 490.7)">n</text><text xml:space="preserve" font-family="GillSans,Gill Sans" font-size="42.0" fill="#000000" transform="matrix(1.00, 0.00, -0.00, -1.00, 285.6, 490.7)">f</text><text xml:space="preserve" font-family="GillSans,Gill Sans" font-size="42.0" fill="#000000" transform="matrix(1.00, 0.00, -0.00, -1.00, 296.1, 490.7)">u</text><text xml:space="preserve" font-family="GillSans,Gill Sans" font-size="42.0" fill="#000000" transform="matrix(1.00, 0.00, -0.00, -1.00, 317.1, 490.7)">l</text><text xml:space="preserve" font-family="GillSans,Gill Sans" font-size="42.0" fill="#000000" transform="matrix(1.00, 0.00, -0.00, -1.00, 326.3, 490.7)"> </text><text xml:space="preserve" font-family="GillSans,Gill Sans" font-size="42.0" fill="#000000" transform="matrix(1.00, 0.00, -0.00, -1.00, 338.0, 490.7)">i</text><text xml:space="preserve" font-family="GillSans,Gill Sans" font-size="42.0" fill="#000000" transform="matrix(1.00, 0.00, -0.00, -1.00, 347.2, 490.7)">n</text><text xml:space="preserve" font-family="GillSans,Gill Sans" font-size="42.0" fill="#000000" transform="matrix(1.00, 0.00, -0.00, -1.00, 368.2, 490.7)"> </text><text xml:space="preserve" font-family="GillSans,Gill Sans" font-size="42.0" fill="#000000" transform="matrix(1.00, 0.00, -0.00, -1.00, 379.8, 490.7)">l</text><text xml:space="preserve" font-family="GillSans,Gill Sans" font-size="42.0" fill="#000000" transform="matrix(1.00, 0.00, -0.00, -1.00, 389.0, 490.7)">e</text><text xml:space="preserve" font-family="GillSans,Gill Sans" font-size="42.0" fill="#000000" transform="matrix(1.00, 0.00, -0.00, -1.00, 409.2, 490.7)">n</text><text xml:space="preserve" font-family="GillSans,Gill Sans" font-size="42.0" fill="#000000" transform="matrix(1.00, 0.00, -0.00, -1.00, 430.2, 490.7)">g</text><text xml:space="preserve" font-family="GillSans,Gill Sans" font-size="42.0" fill="#000000" transform="matrix(1.00, 0.00, -0.00, -1.00, 448.1, 490.7)">t</text><text xml:space="preserve" font-family="GillSans,Gill Sans" font-size="42.0" fill="#000000" transform="matrix(1.00, 0.00, -0.00, -1.00, 462.1, 490.7)">h</text><text xml:space="preserve" font-family="GillSans,Gill Sans" font-size="42.0" fill="#000000" transform="matrix(1.00, 0.00, -0.00, -1.00, 483.1, 490.7)">.</text><text xml:space="preserve" font-family="GillSans,Gill Sans" font-size="42.0" fill="#000000" transform="matrix(1.00, 0.00, -0.00, -1.00, 488.1, 490.7)"> </text><text xml:space="preserve" font-family="GillSans,Gill Sans" font-size="71.8" fill="#000000" transform="matrix(1.00, 0.00, -0.00, -1.00, 129.0, 383.6)">•</text><text xml:space="preserve" font-family="GillSans,Gill Sans" font-size="42.0" fill="#000000" transform="matrix(1.00, 0.00, -0.00, -1.00, 174.0, 393.7)">A</text><text xml:space="preserve" font-family="GillSans,Gill Sans" font-size="42.0" fill="#000000" transform="matrix(1.00, 0.00, -0.00, -1.00, 202.0, 393.7)">i</text><text xml:space="preserve" font-family="GillSans,Gill Sans" font-size="42.0" fill="#000000" transform="matrix(1.00, 0.00, -0.00, -1.00, 211.2, 393.7)">m</text><text xml:space="preserve" font-family="GillSans,Gill Sans" font-size="42.0" fill="#000000" transform="matrix(1.00, 0.00, -0.00, -1.00, 243.6, 393.7)"> </text><text xml:space="preserve" font-family="GillSans,Gill Sans" font-size="42.0" fill="#000000" transform="matrix(1.00, 0.00, -0.00, -1.00, 255.3, 393.7)">f</text><text xml:space="preserve" font-family="GillSans,Gill Sans" font-size="42.0" fill="#000000" transform="matrix(1.00, 0.00, -0.00, -1.00, 265.4, 393.7)">o</text><text xml:space="preserve" font-family="GillSans,Gill Sans" font-size="42.0" fill="#000000" transform="matrix(1.00, 0.00, -0.00, -1.00, 288.5, 393.7)">r</text><text xml:space="preserve" font-family="GillSans,Gill Sans" font-size="42.0" fill="#000000" transform="matrix(1.00, 0.00, -0.00, -1.00, 305.2, 393.7)"> </text><text xml:space="preserve" font-family="GillSans,Gill Sans" font-size="42.0" fill="#000000" transform="matrix(1.00, 0.00, -0.00, -1.00, 316.8, 393.7)">o</text><text xml:space="preserve" font-family="GillSans,Gill Sans" font-size="42.0" fill="#000000" transform="matrix(1.00, 0.00, -0.00, -1.00, 340.0, 393.7)">n</text><text xml:space="preserve" font-family="GillSans,Gill Sans" font-size="42.0" fill="#000000" transform="matrix(1.00, 0.00, -0.00, -1.00, 361.0, 393.7)">e</text><text xml:space="preserve" font-family="GillSans,Gill Sans" font-size="42.0" fill="#000000" transform="matrix(1.00, 0.00, -0.00, -1.00, 381.9, 393.7)">,</text><text xml:space="preserve" font-family="GillSans,Gill Sans" font-size="42.0" fill="#000000" transform="matrix(1.00, 0.00, -0.00, -1.00, 387.0, 393.7)"> </text><text xml:space="preserve" font-family="GillSans,Gill Sans" font-size="42.0" fill="#000000" transform="matrix(1.00, 0.00, -0.00, -1.00, 398.6, 393.7)">s</text><text xml:space="preserve" font-family="GillSans,Gill Sans" font-size="42.0" fill="#000000" transform="matrix(1.00, 0.00, -0.00, -1.00, 414.8, 393.7)">i</text><text xml:space="preserve" font-family="GillSans,Gill Sans" font-size="42.0" fill="#000000" transform="matrix(1.00, 0.00, -0.00, -1.00, 424.0, 393.7)">m</text><text xml:space="preserve" font-family="GillSans,Gill Sans" font-size="42.0" fill="#000000" transform="matrix(1.00, 0.00, -0.00, -1.00, 456.4, 393.7)">p</text><text xml:space="preserve" font-family="GillSans,Gill Sans" font-size="42.0" fill="#000000" transform="matrix(1.00, 0.00, -0.00, -1.00, 477.4, 393.7)">l</text><text xml:space="preserve" font-family="GillSans,Gill Sans" font-size="42.0" fill="#000000" transform="matrix(1.00, 0.00, -0.00, -1.00, 486.6, 393.7)">e</text><text xml:space="preserve" font-family="GillSans,Gill Sans" font-size="42.0" fill="#000000" transform="matrix(1.00, 0.00, -0.00, -1.00, 506.7, 393.7)"> </text><text xml:space="preserve" font-family="GillSans,Gill Sans" font-size="42.0" fill="#000000" transform="matrix(1.00, 0.00, -0.00, -1.00, 518.4, 393.7)">l</text><text xml:space="preserve" font-family="GillSans,Gill Sans" font-size="42.0" fill="#000000" transform="matrix(1.00, 0.00, -0.00, -1.00, 527.6, 393.7)">i</text><text xml:space="preserve" font-family="GillSans,Gill Sans" font-size="42.0" fill="#000000" transform="matrix(1.00, 0.00, -0.00, -1.00, 536.8, 393.7)">n</text><text xml:space="preserve" font-family="GillSans,Gill Sans" font-size="42.0" fill="#000000" transform="matrix(1.00, 0.00, -0.00, -1.00, 557.8, 393.7)">e</text><text xml:space="preserve" font-family="GillSans,Gill Sans" font-size="42.0" fill="#000000" transform="matrix(1.00, 0.00, -0.00, -1.00, 577.9, 393.7)"> </text><text xml:space="preserve" font-family="GillSans,Gill Sans" font-size="42.0" fill="#000000" transform="matrix(1.00, 0.00, -0.00, -1.00, 589.6, 393.7)">t</text><text xml:space="preserve" font-family="GillSans,Gill Sans" font-size="42.0" fill="#000000" transform="matrix(1.00, 0.00, -0.00, -1.00, 603.6, 393.7)">h</text><text xml:space="preserve" font-family="GillSans,Gill Sans" font-size="42.0" fill="#000000" transform="matrix(1.00, 0.00, -0.00, -1.00, 624.6, 393.7)">r</text><text xml:space="preserve" font-family="GillSans,Gill Sans" font-size="42.0" fill="#000000" transform="matrix(1.00, 0.00, -0.00, -1.00, 640.1, 393.7)">o</text><text xml:space="preserve" font-family="GillSans,Gill Sans" font-size="42.0" fill="#000000" transform="matrix(1.00, 0.00, -0.00, -1.00, 663.3, 393.7)">u</text><text xml:space="preserve" font-family="GillSans,Gill Sans" font-size="42.0" fill="#000000" transform="matrix(1.00, 0.00, -0.00, -1.00, 684.3, 393.7)">g</text><text xml:space="preserve" font-family="GillSans,Gill Sans" font-size="42.0" fill="#000000" transform="matrix(1.00, 0.00, -0.00, -1.00, 702.2, 393.7)">h</text><text xml:space="preserve" font-family="GillSans,Gill Sans" font-size="42.0" fill="#000000" transform="matrix(1.00, 0.00, -0.00, -1.00, 723.2, 393.7)"> </text><text xml:space="preserve" font-family="GillSans,Gill Sans" font-size="42.0" fill="#000000" transform="matrix(1.00, 0.00, -0.00, -1.00, 734.9, 393.7)">y</text><text xml:space="preserve" font-family="GillSans,Gill Sans" font-size="42.0" fill="#000000" transform="matrix(1.00, 0.00, -0.00, -1.00, 752.4, 393.7)">o</text><text xml:space="preserve" font-family="GillSans,Gill Sans" font-size="42.0" fill="#000000" transform="matrix(1.00, 0.00, -0.00, -1.00, 775.6, 393.7)">u</text><text xml:space="preserve" font-family="GillSans,Gill Sans" font-size="42.0" fill="#000000" transform="matrix(1.00, 0.00, -0.00, -1.00, 796.6, 393.7)">r</text><text xml:space="preserve" font-family="GillSans,Gill Sans" font-size="42.0" fill="#000000" transform="matrix(1.00, 0.00, -0.00, -1.00, 813.2, 393.7)"> </text><text xml:space="preserve" font-family="GillSans,Gill Sans" font-size="42.0" fill="#000000" transform="matrix(1.00, 0.00, -0.00, -1.00, 824.9, 393.7)">c</text><text xml:space="preserve" font-family="GillSans,Gill Sans" font-size="42.0" fill="#000000" transform="matrix(1.00, 0.00, -0.00, -1.00, 843.3, 393.7)">o</text><text xml:space="preserve" font-family="GillSans,Gill Sans" font-size="42.0" fill="#000000" transform="matrix(1.00, 0.00, -0.00, -1.00, 866.5, 393.7)">d</text><text xml:space="preserve" font-family="GillSans,Gill Sans" font-size="42.0" fill="#000000" transform="matrix(1.00, 0.00, -0.00, -1.00, 887.9, 393.7)">e</text><text xml:space="preserve" font-family="GillSans,Gill Sans" font-size="42.0" fill="#000000" transform="matrix(1.00, 0.00, -0.00, -1.00, 908.8, 393.7)">.</text><text xml:space="preserve" font-family="GillSans,Gill Sans" font-size="42.0" fill="#000000" transform="matrix(1.00, 0.00, -0.00, -1.00, 913.8, 393.7)"> </text><text xml:space="preserve" font-family="GillSans,Gill Sans" font-size="42.0" fill="#000000" transform="matrix(1.00, 0.00, -0.00, -1.00, 174.0, 344.7)">I</text><text xml:space="preserve" font-family="GillSans,Gill Sans" font-size="42.0" fill="#000000" transform="matrix(1.00, 0.00, -0.00, -1.00, 184.5, 344.7)">f</text><text xml:space="preserve" font-family="GillSans,Gill Sans" font-size="42.0" fill="#000000" transform="matrix(1.00, 0.00, -0.00, -1.00, 195.0, 344.7)"> </text><text xml:space="preserve" font-family="GillSans,Gill Sans" font-size="42.0" fill="#000000" transform="matrix(1.00, 0.00, -0.00, -1.00, 206.7, 344.7)">y</text><text xml:space="preserve" font-family="GillSans,Gill Sans" font-size="42.0" fill="#000000" transform="matrix(1.00, 0.00, -0.00, -1.00, 224.2, 344.7)">o</text><text xml:space="preserve" font-family="GillSans,Gill Sans" font-size="42.0" fill="#000000" transform="matrix(1.00, 0.00, -0.00, -1.00, 247.4, 344.7)">u</text><text xml:space="preserve" font-family="GillSans,Gill Sans" font-size="42.0" fill="#000000" transform="matrix(1.00, 0.00, -0.00, -1.00, 268.4, 344.7)"> </text><text xml:space="preserve" font-family="GillSans,Gill Sans" font-size="42.0" fill="#000000" transform="matrix(1.00, 0.00, -0.00, -1.00, 280.0, 344.7)">a</text><text xml:space="preserve" font-family="GillSans,Gill Sans" font-size="42.0" fill="#000000" transform="matrix(1.00, 0.00, -0.00, -1.00, 298.0, 344.7)">b</text><text xml:space="preserve" font-family="GillSans,Gill Sans" font-size="42.0" fill="#000000" transform="matrix(1.00, 0.00, -0.00, -1.00, 319.0, 344.7)">s</text><text xml:space="preserve" font-family="GillSans,Gill Sans" font-size="42.0" fill="#000000" transform="matrix(1.00, 0.00, -0.00, -1.00, 335.1, 344.7)">o</text><text xml:space="preserve" font-family="GillSans,Gill Sans" font-size="42.0" fill="#000000" transform="matrix(1.00, 0.00, -0.00, -1.00, 358.3, 344.7)">l</text><text xml:space="preserve" font-family="GillSans,Gill Sans" font-size="42.0" fill="#000000" transform="matrix(1.00, 0.00, -0.00, -1.00, 367.5, 344.7)">u</text><text xml:space="preserve" font-family="GillSans,Gill Sans" font-size="42.0" fill="#000000" transform="matrix(1.00, 0.00, -0.00, -1.00, 388.5, 344.7)">t</text><text xml:space="preserve" font-family="GillSans,Gill Sans" font-size="42.0" fill="#000000" transform="matrix(1.00, 0.00, -0.00, -1.00, 402.5, 344.7)">e</text><text xml:space="preserve" font-family="GillSans,Gill Sans" font-size="42.0" fill="#000000" transform="matrix(1.00, 0.00, -0.00, -1.00, 422.6, 344.7)">l</text><text xml:space="preserve" font-family="GillSans,Gill Sans" font-size="42.0" fill="#000000" transform="matrix(1.00, 0.00, -0.00, -1.00, 431.4, 344.7)">y</text><text xml:space="preserve" font-family="GillSans,Gill Sans" font-size="42.0" fill="#000000" transform="matrix(1.00, 0.00, -0.00, -1.00, 449.8, 344.7)"> </text><text xml:space="preserve" font-family="GillSans,Gill Sans" font-size="42.0" fill="#000000" transform="matrix(1.00, 0.00, -0.00, -1.00, 461.5, 344.7)">h</text><text xml:space="preserve" font-family="GillSans,Gill Sans" font-size="42.0" fill="#000000" transform="matrix(1.00, 0.00, -0.00, -1.00, 482.5, 344.7)">a</text><text xml:space="preserve" font-family="GillSans,Gill Sans" font-size="42.0" fill="#000000" transform="matrix(1.00, 0.00, -0.00, -1.00, 498.9, 344.7)">v</text><text xml:space="preserve" font-family="GillSans,Gill Sans" font-size="42.0" fill="#000000" transform="matrix(1.00, 0.00, -0.00, -1.00, 516.5, 344.7)">e</text><text xml:space="preserve" font-family="GillSans,Gill Sans" font-size="42.0" fill="#000000" transform="matrix(1.00, 0.00, -0.00, -1.00, 536.6, 344.7)"> </text><text xml:space="preserve" font-family="GillSans,Gill Sans" font-size="42.0" fill="#000000" transform="matrix(1.00, 0.00, -0.00, -1.00, 548.2, 344.7)">t</text><text xml:space="preserve" font-family="GillSans,Gill Sans" font-size="42.0" fill="#000000" transform="matrix(1.00, 0.00, -0.00, -1.00, 562.2, 344.7)">o</text><text xml:space="preserve" font-family="GillSans,Gill Sans" font-size="42.0" fill="#000000" transform="matrix(1.00, 0.00, -0.00, -1.00, 585.4, 344.7)"> </text><text xml:space="preserve" font-family="GillSans,Gill Sans" font-size="42.0" fill="#000000" transform="matrix(1.00, 0.00, -0.00, -1.00, 597.0, 344.7)">w</text><text xml:space="preserve" font-family="GillSans,Gill Sans" font-size="42.0" fill="#000000" transform="matrix(1.00, 0.00, -0.00, -1.00, 626.4, 344.7)">o</text><text xml:space="preserve" font-family="GillSans,Gill Sans" font-size="42.0" fill="#000000" transform="matrix(1.00, 0.00, -0.00, -1.00, 649.6, 344.7)">r</text><text xml:space="preserve" font-family="GillSans,Gill Sans" font-size="42.0" fill="#000000" transform="matrix(1.00, 0.00, -0.00, -1.00, 665.8, 344.7)">r</text><text xml:space="preserve" font-family="GillSans,Gill Sans" font-size="42.0" fill="#000000" transform="matrix(1.00, 0.00, -0.00, -1.00, 683.7, 344.7)">y</text><text xml:space="preserve" font-family="GillSans,Gill Sans" font-size="42.0" fill="#000000" transform="matrix(1.00, 0.00, -0.00, -1.00, 702.1, 344.7)"> </text><text xml:space="preserve" font-family="GillSans,Gill Sans" font-size="42.0" fill="#000000" transform="matrix(1.00, 0.00, -0.00, -1.00, 713.7, 344.7)">a</text><text xml:space="preserve" font-family="GillSans,Gill Sans" font-size="42.0" fill="#000000" transform="matrix(1.00, 0.00, -0.00, -1.00, 731.7, 344.7)">b</text><text xml:space="preserve" font-family="GillSans,Gill Sans" font-size="42.0" fill="#000000" transform="matrix(1.00, 0.00, -0.00, -1.00, 752.7, 344.7)">o</text><text xml:space="preserve" font-family="GillSans,Gill Sans" font-size="42.0" fill="#000000" transform="matrix(1.00, 0.00, -0.00, -1.00, 775.8, 344.7)">u</text><text xml:space="preserve" font-family="GillSans,Gill Sans" font-size="42.0" fill="#000000" transform="matrix(1.00, 0.00, -0.00, -1.00, 796.8, 344.7)">t</text><text xml:space="preserve" font-family="GillSans,Gill Sans" font-size="42.0" fill="#000000" transform="matrix(1.00, 0.00, -0.00, -1.00, 810.8, 344.7)"> </text><text xml:space="preserve" font-family="GillSans,Gill Sans" font-size="42.0" fill="#000000" transform="matrix(1.00, 0.00, -0.00, -1.00, 822.5, 344.7)">a</text><text xml:space="preserve" font-family="GillSans,Gill Sans" font-size="42.0" fill="#000000" transform="matrix(1.00, 0.00, -0.00, -1.00, 840.4, 344.7)"> </text><text xml:space="preserve" font-family="GillSans,Gill Sans" font-size="42.0" fill="#000000" transform="matrix(1.00, 0.00, -0.00, -1.00, 174.0, 295.7)">s</text><text xml:space="preserve" font-family="GillSans,Gill Sans" font-size="42.0" fill="#000000" transform="matrix(1.00, 0.00, -0.00, -1.00, 190.2, 295.7)">e</text><text xml:space="preserve" font-family="GillSans,Gill Sans" font-size="42.0" fill="#000000" transform="matrix(1.00, 0.00, -0.00, -1.00, 210.3, 295.7)">p</text><text xml:space="preserve" font-family="GillSans,Gill Sans" font-size="42.0" fill="#000000" transform="matrix(1.00, 0.00, -0.00, -1.00, 231.3, 295.7)">a</text><text xml:space="preserve" font-family="GillSans,Gill Sans" font-size="42.0" fill="#000000" transform="matrix(1.00, 0.00, -0.00, -1.00, 249.2, 295.7)">r</text><text xml:space="preserve" font-family="GillSans,Gill Sans" font-size="42.0" fill="#000000" transform="matrix(1.00, 0.00, -0.00, -1.00, 265.8, 295.7)">a</text><text xml:space="preserve" font-family="GillSans,Gill Sans" font-size="42.0" fill="#000000" transform="matrix(1.00, 0.00, -0.00, -1.00, 283.7, 295.7)">t</text><text xml:space="preserve" font-family="GillSans,Gill Sans" font-size="42.0" fill="#000000" transform="matrix(1.00, 0.00, -0.00, -1.00, 297.7, 295.7)">e</text><text xml:space="preserve" font-family="GillSans,Gill Sans" font-size="42.0" fill="#000000" transform="matrix(1.00, 0.00, -0.00, -1.00, 317.8, 295.7)"> </text><text xml:space="preserve" font-family="GillSans,Gill Sans" font-size="42.0" fill="#000000" transform="matrix(1.00, 0.00, -0.00, -1.00, 329.5, 295.7)">c</text><text xml:space="preserve" font-family="GillSans,Gill Sans" font-size="42.0" fill="#000000" transform="matrix(1.00, 0.00, -0.00, -1.00, 347.9, 295.7)">o</text><text xml:space="preserve" font-family="GillSans,Gill Sans" font-size="42.0" fill="#000000" transform="matrix(1.00, 0.00, -0.00, -1.00, 371.1, 295.7)">n</text><text xml:space="preserve" font-family="GillSans,Gill Sans" font-size="42.0" fill="#000000" transform="matrix(1.00, 0.00, -0.00, -1.00, 392.1, 295.7)">c</text><text xml:space="preserve" font-family="GillSans,Gill Sans" font-size="42.0" fill="#000000" transform="matrix(1.00, 0.00, -0.00, -1.00, 410.5, 295.7)">e</text><text xml:space="preserve" font-family="GillSans,Gill Sans" font-size="42.0" fill="#000000" transform="matrix(1.00, 0.00, -0.00, -1.00, 430.6, 295.7)">r</text><text xml:space="preserve" font-family="GillSans,Gill Sans" font-size="42.0" fill="#000000" transform="matrix(1.00, 0.00, -0.00, -1.00, 447.2, 295.7)">n</text><text xml:space="preserve" font-family="GillSans,Gill Sans" font-size="42.0" fill="#000000" transform="matrix(1.00, 0.00, -0.00, -1.00, 468.2, 295.7)"> </text><text xml:space="preserve" font-family="GillSans,Gill Sans" font-size="42.0" fill="#000000" transform="matrix(1.00, 0.00, -0.00, -1.00, 479.9, 295.7)">(</text><text xml:space="preserve" font-family="GillSans,Gill Sans" font-size="42.0" fill="#000000" transform="matrix(1.00, 0.00, -0.00, -1.00, 493.4, 295.7)">d</text><text xml:space="preserve" font-family="GillSans,Gill Sans" font-size="42.0" fill="#000000" transform="matrix(1.00, 0.00, -0.00, -1.00, 514.9, 295.7)">u</text><text xml:space="preserve" font-family="GillSans,Gill Sans" font-size="42.0" fill="#000000" transform="matrix(1.00, 0.00, -0.00, -1.00, 535.9, 295.7)">e</text><text xml:space="preserve" font-family="GillSans,Gill Sans" font-size="42.0" fill="#000000" transform="matrix(1.00, 0.00, -0.00, -1.00, 556.0, 295.7)"> </text><text xml:space="preserve" font-family="GillSans,Gill Sans" font-size="42.0" fill="#000000" transform="matrix(1.00, 0.00, -0.00, -1.00, 567.6, 295.7)">t</text><text xml:space="preserve" font-family="GillSans,Gill Sans" font-size="42.0" fill="#000000" transform="matrix(1.00, 0.00, -0.00, -1.00, 581.6, 295.7)">o</text><text xml:space="preserve" font-family="GillSans,Gill Sans" font-size="42.0" fill="#000000" transform="matrix(1.00, 0.00, -0.00, -1.00, 604.8, 295.7)"> </text><text xml:space="preserve" font-family="GillSans,Gill Sans" font-size="42.0" fill="#000000" transform="matrix(1.00, 0.00, -0.00, -1.00, 616.4, 295.7)">p</text><text xml:space="preserve" font-family="GillSans,Gill Sans" font-size="42.0" fill="#000000" transform="matrix(1.00, 0.00, -0.00, -1.00, 637.4, 295.7)">e</text><text xml:space="preserve" font-family="GillSans,Gill Sans" font-size="42.0" fill="#000000" transform="matrix(1.00, 0.00, -0.00, -1.00, 657.6, 295.7)">r</text><text xml:space="preserve" font-family="GillSans,Gill Sans" font-size="42.0" fill="#000000" transform="matrix(1.00, 0.00, -0.00, -1.00, 674.2, 295.7)">f</text><text xml:space="preserve" font-family="GillSans,Gill Sans" font-size="42.0" fill="#000000" transform="matrix(1.00, 0.00, -0.00, -1.00, 684.3, 295.7)">o</text><text xml:space="preserve" font-family="GillSans,Gill Sans" font-size="42.0" fill="#000000" transform="matrix(1.00, 0.00, -0.00, -1.00, 707.4, 295.7)">r</text><text xml:space="preserve" font-family="GillSans,Gill Sans" font-size="42.0" fill="#000000" transform="matrix(1.00, 0.00, -0.00, -1.00, 724.1, 295.7)">m</text><text xml:space="preserve" font-family="GillSans,Gill Sans" font-size="42.0" fill="#000000" transform="matrix(1.00, 0.00, -0.00, -1.00, 756.5, 295.7)">a</text><text xml:space="preserve" font-family="GillSans,Gill Sans" font-size="42.0" fill="#000000" transform="matrix(1.00, 0.00, -0.00, -1.00, 774.4, 295.7)">n</text><text xml:space="preserve" font-family="GillSans,Gill Sans" font-size="42.0" fill="#000000" transform="matrix(1.00, 0.00, -0.00, -1.00, 795.4, 295.7)">c</text><text xml:space="preserve" font-family="GillSans,Gill Sans" font-size="42.0" fill="#000000" transform="matrix(1.00, 0.00, -0.00, -1.00, 813.8, 295.7)">e</text><text xml:space="preserve" font-family="GillSans,Gill Sans" font-size="42.0" fill="#000000" transform="matrix(1.00, 0.00, -0.00, -1.00, 833.9, 295.7)"> </text><text xml:space="preserve" font-family="GillSans,Gill Sans" font-size="42.0" fill="#000000" transform="matrix(1.00, 0.00, -0.00, -1.00, 174.0, 246.7)">r</text><text xml:space="preserve" font-family="GillSans,Gill Sans" font-size="42.0" fill="#000000" transform="matrix(1.00, 0.00, -0.00, -1.00, 189.8, 246.7)">e</text><text xml:space="preserve" font-family="GillSans,Gill Sans" font-size="42.0" fill="#000000" transform="matrix(1.00, 0.00, -0.00, -1.00, 209.9, 246.7)">q</text><text xml:space="preserve" font-family="GillSans,Gill Sans" font-size="42.0" fill="#000000" transform="matrix(1.00, 0.00, -0.00, -1.00, 230.9, 246.7)">u</text><text xml:space="preserve" font-family="GillSans,Gill Sans" font-size="42.0" fill="#000000" transform="matrix(1.00, 0.00, -0.00, -1.00, 251.9, 246.7)">i</text><text xml:space="preserve" font-family="GillSans,Gill Sans" font-size="42.0" fill="#000000" transform="matrix(1.00, 0.00, -0.00, -1.00, 261.1, 246.7)">r</text><text xml:space="preserve" font-family="GillSans,Gill Sans" font-size="42.0" fill="#000000" transform="matrix(1.00, 0.00, -0.00, -1.00, 276.9, 246.7)">e</text><text xml:space="preserve" font-family="GillSans,Gill Sans" font-size="42.0" fill="#000000" transform="matrix(1.00, 0.00, -0.00, -1.00, 297.0, 246.7)">m</text><text xml:space="preserve" font-family="GillSans,Gill Sans" font-size="42.0" fill="#000000" transform="matrix(1.00, 0.00, -0.00, -1.00, 329.4, 246.7)">e</text><text xml:space="preserve" font-family="GillSans,Gill Sans" font-size="42.0" fill="#000000" transform="matrix(1.00, 0.00, -0.00, -1.00, 349.5, 246.7)">n</text><text xml:space="preserve" font-family="GillSans,Gill Sans" font-size="42.0" fill="#000000" transform="matrix(1.00, 0.00, -0.00, -1.00, 370.5, 246.7)">t</text><text xml:space="preserve" font-family="GillSans,Gill Sans" font-size="42.0" fill="#000000" transform="matrix(1.00, 0.00, -0.00, -1.00, 384.5, 246.7)">s</text><text xml:space="preserve" font-family="GillSans,Gill Sans" font-size="42.0" fill="#000000" transform="matrix(1.00, 0.00, -0.00, -1.00, 400.7, 246.7)">,</text><text xml:space="preserve" font-family="GillSans,Gill Sans" font-size="42.0" fill="#000000" transform="matrix(1.00, 0.00, -0.00, -1.00, 405.7, 246.7)"> </text><text xml:space="preserve" font-family="GillSans,Gill Sans" font-size="42.0" fill="#000000" transform="matrix(1.00, 0.00, -0.00, -1.00, 417.3, 246.7)">f</text><text xml:space="preserve" font-family="GillSans,Gill Sans" font-size="42.0" fill="#000000" transform="matrix(1.00, 0.00, -0.00, -1.00, 427.4, 246.7)">o</text><text xml:space="preserve" font-family="GillSans,Gill Sans" font-size="42.0" fill="#000000" transform="matrix(1.00, 0.00, -0.00, -1.00, 450.6, 246.7)">r</text><text xml:space="preserve" font-family="GillSans,Gill Sans" font-size="42.0" fill="#000000" transform="matrix(1.00, 0.00, -0.00, -1.00, 467.2, 246.7)"> </text><text xml:space="preserve" font-family="GillSans,Gill Sans" font-size="42.0" fill="#000000" transform="matrix(1.00, 0.00, -0.00, -1.00, 478.9, 246.7)">i</text><text xml:space="preserve" font-family="GillSans,Gill Sans" font-size="42.0" fill="#000000" transform="matrix(1.00, 0.00, -0.00, -1.00, 488.1, 246.7)">n</text><text xml:space="preserve" font-family="GillSans,Gill Sans" font-size="42.0" fill="#000000" transform="matrix(1.00, 0.00, -0.00, -1.00, 509.1, 246.7)">s</text><text xml:space="preserve" font-family="GillSans,Gill Sans" font-size="42.0" fill="#000000" transform="matrix(1.00, 0.00, -0.00, -1.00, 525.3, 246.7)">t</text><text xml:space="preserve" font-family="GillSans,Gill Sans" font-size="42.0" fill="#000000" transform="matrix(1.00, 0.00, -0.00, -1.00, 539.2, 246.7)">a</text><text xml:space="preserve" font-family="GillSans,Gill Sans" font-size="42.0" fill="#000000" transform="matrix(1.00, 0.00, -0.00, -1.00, 557.2, 246.7)">n</text><text xml:space="preserve" font-family="GillSans,Gill Sans" font-size="42.0" fill="#000000" transform="matrix(1.00, 0.00, -0.00, -1.00, 578.2, 246.7)">c</text><text xml:space="preserve" font-family="GillSans,Gill Sans" font-size="42.0" fill="#000000" transform="matrix(1.00, 0.00, -0.00, -1.00, 596.6, 246.7)">e</text><text xml:space="preserve" font-family="GillSans,Gill Sans" font-size="42.0" fill="#000000" transform="matrix(1.00, 0.00, -0.00, -1.00, 616.7, 246.7)">)</text><text xml:space="preserve" font-family="GillSans,Gill Sans" font-size="42.0" fill="#000000" transform="matrix(1.00, 0.00, -0.00, -1.00, 630.3, 246.7)">,</text><text xml:space="preserve" font-family="GillSans,Gill Sans" font-size="42.0" fill="#000000" transform="matrix(1.00, 0.00, -0.00, -1.00, 635.3, 246.7)"> </text><text xml:space="preserve" font-family="GillSans,Gill Sans" font-size="42.0" fill="#000000" transform="matrix(1.00, 0.00, -0.00, -1.00, 646.9, 246.7)">i</text><text xml:space="preserve" font-family="GillSans,Gill Sans" font-size="42.0" fill="#000000" transform="matrix(1.00, 0.00, -0.00, -1.00, 656.2, 246.7)">s</text><text xml:space="preserve" font-family="GillSans,Gill Sans" font-size="42.0" fill="#000000" transform="matrix(1.00, 0.00, -0.00, -1.00, 672.3, 246.7)">o</text><text xml:space="preserve" font-family="GillSans,Gill Sans" font-size="42.0" fill="#000000" transform="matrix(1.00, 0.00, -0.00, -1.00, 695.5, 246.7)">l</text><text xml:space="preserve" font-family="GillSans,Gill Sans" font-size="42.0" fill="#000000" transform="matrix(1.00, 0.00, -0.00, -1.00, 704.7, 246.7)">a</text><text xml:space="preserve" font-family="GillSans,Gill Sans" font-size="42.0" fill="#000000" transform="matrix(1.00, 0.00, -0.00, -1.00, 722.6, 246.7)">t</text><text xml:space="preserve" font-family="GillSans,Gill Sans" font-size="42.0" fill="#000000" transform="matrix(1.00, 0.00, -0.00, -1.00, 736.6, 246.7)">e</text><text xml:space="preserve" font-family="GillSans,Gill Sans" font-size="42.0" fill="#000000" transform="matrix(1.00, 0.00, -0.00, -1.00, 756.7, 246.7)"> </text><text xml:space="preserve" font-family="GillSans,Gill Sans" font-size="42.0" fill="#000000" transform="matrix(1.00, 0.00, -0.00, -1.00, 768.4, 246.7)">i</text><text xml:space="preserve" font-family="GillSans,Gill Sans" font-size="42.0" fill="#000000" transform="matrix(1.00, 0.00, -0.00, -1.00, 777.6, 246.7)">t</text><text xml:space="preserve" font-family="GillSans,Gill Sans" font-size="42.0" fill="#000000" transform="matrix(1.00, 0.00, -0.00, -1.00, 791.6, 246.7)"> </text><text xml:space="preserve" font-family="GillSans,Gill Sans" font-size="42.0" fill="#000000" transform="matrix(1.00, 0.00, -0.00, -1.00, 803.2, 246.7)">a</text><text xml:space="preserve" font-family="GillSans,Gill Sans" font-size="42.0" fill="#000000" transform="matrix(1.00, 0.00, -0.00, -1.00, 821.1, 246.7)">s</text><text xml:space="preserve" font-family="GillSans,Gill Sans" font-size="42.0" fill="#000000" transform="matrix(1.00, 0.00, -0.00, -1.00, 837.3, 246.7)"> </text><text xml:space="preserve" font-family="GillSans,Gill Sans" font-size="42.0" fill="#000000" transform="matrix(1.00, 0.00, -0.00, -1.00, 174.0, 197.7)">m</text><text xml:space="preserve" font-family="GillSans,Gill Sans" font-size="42.0" fill="#000000" transform="matrix(1.00, 0.00, -0.00, -1.00, 206.0, 197.7)">u</text><text xml:space="preserve" font-family="GillSans,Gill Sans" font-size="42.0" fill="#000000" transform="matrix(1.00, 0.00, -0.00, -1.00, 227.0, 197.7)">c</text><text xml:space="preserve" font-family="GillSans,Gill Sans" font-size="42.0" fill="#000000" transform="matrix(1.00, 0.00, -0.00, -1.00, 245.4, 197.7)">h</text><text xml:space="preserve" font-family="GillSans,Gill Sans" font-size="42.0" fill="#000000" transform="matrix(1.00, 0.00, -0.00, -1.00, 266.4, 197.7)"> </text><text xml:space="preserve" font-family="GillSans,Gill Sans" font-size="42.0" fill="#000000" transform="matrix(1.00, 0.00, -0.00, -1.00, 278.0, 197.7)">a</text><text xml:space="preserve" font-family="GillSans,Gill Sans" font-size="42.0" fill="#000000" transform="matrix(1.00, 0.00, -0.00, -1.00, 295.9, 197.7)">s</text><text xml:space="preserve" font-family="GillSans,Gill Sans" font-size="42.0" fill="#000000" transform="matrix(1.00, 0.00, -0.00, -1.00, 312.1, 197.7)"> </text><text xml:space="preserve" font-family="GillSans,Gill Sans" font-size="42.0" fill="#000000" transform="matrix(1.00, 0.00, -0.00, -1.00, 323.8, 197.7)">p</text><text xml:space="preserve" font-family="GillSans,Gill Sans" font-size="42.0" fill="#000000" transform="matrix(1.00, 0.00, -0.00, -1.00, 344.8, 197.7)">o</text><text xml:space="preserve" font-family="GillSans,Gill Sans" font-size="42.0" fill="#000000" transform="matrix(1.00, 0.00, -0.00, -1.00, 367.9, 197.7)">s</text><text xml:space="preserve" font-family="GillSans,Gill Sans" font-size="42.0" fill="#000000" transform="matrix(1.00, 0.00, -0.00, -1.00, 384.1, 197.7)">s</text><text xml:space="preserve" font-family="GillSans,Gill Sans" font-size="42.0" fill="#000000" transform="matrix(1.00, 0.00, -0.00, -1.00, 400.2, 197.7)">i</text><text xml:space="preserve" font-family="GillSans,Gill Sans" font-size="42.0" fill="#000000" transform="matrix(1.00, 0.00, -0.00, -1.00, 409.4, 197.7)">b</text><text xml:space="preserve" font-family="GillSans,Gill Sans" font-size="42.0" fill="#000000" transform="matrix(1.00, 0.00, -0.00, -1.00, 430.4, 197.7)">l</text><text xml:space="preserve" font-family="GillSans,Gill Sans" font-size="42.0" fill="#000000" transform="matrix(1.00, 0.00, -0.00, -1.00, 439.7, 197.7)">e</text><text xml:space="preserve" font-family="GillSans,Gill Sans" font-size="42.0" fill="#000000" transform="matrix(1.00, 0.00, -0.00, -1.00, 460.6, 197.7)">.</text></g></svg>